<?xml version="1.0" encoding="utf-8"?>
<!-- Generator: Adobe Illustrator 22.0.0, SVG Export Plug-In . SVG Version: 6.00 Build 0)  -->
<svg version="1.1" id="Calque_1" xmlns="http://www.w3.org/2000/svg" xmlns:xlink="http://www.w3.org/1999/xlink" x="0px" y="0px"
	 viewBox="0 0 1296 1728" style="enable-background:new 0 0 1296 1728;" xml:space="preserve">
<g>
	<path d="M984.9,964.5c-1,1-1.8,1.9-2.7,2.9c-1.1,1.3-1.1,1.5-0.2,2.9c0.3,0.5,0.7,0.9,1,1.4c0.3,0.4,0.5,0.8,1,1.4
		c-1.8,2-3.7,4.1-5.7,6.3c1.2,1.3,2.4,2.7,3.8,4.2c-0.8,0.8-1.6,1.7-2.5,2.4c-3.3,2.5-5,5.6-6,9.7c-2.8,11.4-6.5,22.6-10.8,33.6
		c-0.7,1.7-0.5,3.1,0.4,4.5c1.6,2.7,4.9,2.8,6.7,0.3c0.3-0.4,0.6-0.9,1-1.5c0.5,0.2,1,0.4,1.3,0.7c6.1,6.1,12.2,12.2,18.6,18.5
		c-0.8,0.3-1.3,0.7-1.7,0.7c-5.1-0.5-10.3-1.2-15.4-1.7c-3.7-0.4-7.4-0.7-11.2-1.1c-0.4,0-0.9-0.1-1.4-0.2c1.6-2.4,1.6-4.4,0.2-6
		c-1.7-1.9-3.3-1.6-4.4,0.6c-3,6.4-5.9,13-9.2,19.3c-37.8,72.1-94,124.3-168.7,156.6c-0.6,0.3-1.2,0.5-1.8,0.7
		c-1.2,0.4-1.8,1.2-1.7,2.5c0.1,1.4,0.1,2.9,0,4.3c-0.1,2.4-1.2,3.5-3.6,3.5c-6.1,0-11.3,2-15.6,6.2c-3.8,3.6-5.7,8.1-5.2,13.4
		c0.1,0.9,0,1.7,0,2.5c-1.6,1.1-3.1,1.4-4.9,1.4c-16.7-0.2-33.4-0.3-50.2-0.4c-15.4-0.1-30.7,0-46.1,0c-11.7,0-23.4-0.1-35-0.1
		c-20.4,0.1-40.8,0.3-61.2,0.4c-1.4,0-2.8-0.5-4.2-0.7c-1-0.2-1.2-0.9-1.1-1.8c0.1-1.2,0.2-2.4,0.2-3.6c-0.2-4.1-1.9-7.6-4.7-10.5
		c-4.3-4.4-9.5-6.7-15.6-6.8c-3.3-0.1-4.2-0.9-4.3-4.3c-0.1-4.1,0.6-3.3-3.4-4.9c-81.3-33.2-146.1-96.1-181.6-176.5
		c-0.4-0.9-0.8-1.7-1.2-2.5c-3,1.4-3.4,3.7-1.4,6.9c-9.7,1-19.3,1.9-28.8,2.8c-0.2,0-0.4-0.3-0.5-0.4c0.9-1.8,17.4-18.3,19.4-19.3
		c0.4,0.5,0.8,1.1,1.2,1.7c1.1,1.4,2.8,1.9,4.5,1.3c1.7-0.6,2.2-1.6,1.5-3.3c-5.4-13.6-9.8-27.6-13.3-41.8c-0.3-1-1-2-1.7-2.8
		c-1.2-1.2-2.6-2.2-3.8-3.3c-1.4-1.3-1.5-1.9-0.2-3.4c0.7-0.8,1.5-1.6,2.5-2.7c-1.6-1.4-3-2.8-4.5-4.1c-1.6-1.5-1.6-1.6-0.2-3.2
		c0.5-0.6,1-1.2,1.5-1.8c0.2-0.2,0.4-0.5,0.7-1.1c-0.9-0.9-1.8-1.9-2.7-2.8c-1.6-1.5-1.6-1.6-0.4-3.4c0.4-0.7,0.8-1.4,1.3-2
		c0.9-1.2,1-2.5,0.8-3.9c-0.8-6.7-1.7-13.3-2.2-20c-0.9-12.5-1.6-25.1-0.9-37.6c0.2-3.8,0.4-7.7,0.6-11.5c1-17.5,3.6-34.8,7.5-51.9
		c12.8-56,38.1-105.7,76-148.9c26.7-30.4,57.9-55,93.6-74c15-8,30.1-15.5,46.1-21.4c4.7-1.7,9.4-3.3,14-4.9c0.7-0.3,1.5-0.5,2.4-0.9
		c-0.1-0.7-0.1-1.3-0.3-1.9c-1.2-5.1,1.5-9.8,6.2-11.1c4.8-1.4,9.5,1.2,11.2,6.2c0.2,0.5,0.3,1.1,0.6,1.8c0.8-0.1,1.6-0.2,2.3-0.4
		c19.2-4.6,38.7-7.3,58.4-8.2c1.5-0.1,2.4-0.4,3-2c4.9-13.8,9.8-27.6,14.7-41.3c0.3-0.8,0.6-1.6,0.9-2.6c-3.4-0.7-5.5-2.8-7.1-5.5
		c-1.2-2-1.2-4-0.2-6.2c1.7-3.6,5.1-6,8.6-5.8c4.1,0.1,8.5,4.5,8.6,8.6c0,0.9-0.3,1.9-0.7,2.7c-1.5,3.1-3.8,5.3-7.4,6.2
		c0.6,1.9,1.2,3.6,1.8,5.3c4.7,13.1,9.4,26.2,14,39.3c0.5,1.5,1.4,1.7,2.7,1.8c8,0.8,15.9,1.6,23.8,2.6c11.7,1.5,23.2,3.8,34.6,6.7
		c0.7,0.2,1.4,0.3,2.3,0.5c0.1-0.6,0.3-1.1,0.3-1.6c0.3-3.9,2.3-6.6,6-7.9c3.5-1.2,6.8-0.5,9.5,2.3c2.7,2.8,3.1,6.2,1.8,9.8
		c-0.2,0.5-0.5,1-0.7,1.6c0.9,1.1,2.2,1.3,3.4,1.7c20.4,6.7,40.2,14.8,59.1,25.1c54.6,29.8,98,71.3,129.8,124.9
		c23.4,39.4,38,82,44.1,127.5c2.7,20.4,3.6,41,2.4,61.5c-0.6,9.7-1.7,19.4-2.8,29.1c-0.3,2.4-0.2,4.4,1.4,6.2
		C983.8,962.5,984.2,963.5,984.9,964.5z M707.7,600.1c1.8-1.4,2.7-2.1,4.2-3.4c0.7-0.4,1.3-0.9,1.9-1.3c3.8-2.6,11.6-9,12.4-10.7
		c-1.1,0.9-2.1,1.6-3.1,2.4c-3.3,2.6-6.5,5.3-9.8,7.9c-0.6,0.5-1.4,0.8-2,1.4c-1.4,1.1-2.7,2.2-4.1,3.3c-1.6,1.1-3.3,2.4-4.8,3.6
		c-2.1,1.7-4.2,3.4-6.3,5.2c-1.5,1.2-3.6,2.7-4.9,4.1c0.1,0.1,0.4,0,0.7-0.1c1.4-1.3,2.9-2.1,4.3-3.5c0.5-0.5,0.6-0.5,0.8-0.7
		 M584,595.1c-4-3.7-8.5-6.8-12.9-10.1c1,1.1,2.1,2.1,3.3,3c3.1,2.4,6.2,5.1,9.3,7.5c0.7,0.4,2.1,1.7,2.8,2.1
		c1.6,1.5,1.3,1.4,3.1,2.7c0.1,0.3,1.3,1,1.5,1.2c3.2,2.5,5.9,4.2,9.1,6.7c0.3,0.2,1,0.9,1,0.9c1.8,1.5,2.9,2.1,4.6,3.1
		c0.1-0.2-0.3-0.7-1-1.6c-0.8-0.8-1.7-1.3-3.3-2.3c-2.1-1.8-4.3-3.3-6.4-5c-1.5-1.2-3.2-2.2-4.7-3.4 M616.5,664.8
		c-21.4,15.1-21.3,15.3,0.5,0.6c0.3-0.5,1-0.8,1.3-1.3c0.5-0.2,0.7-0.6,1.1-0.9c5.2-3.5,10.5-7.1,15.7-10.6c0.2-0.1,0.3-0.4,0.5-0.7
		c-0.9,0-1.6,0.3-2.2,0.7c-3.5,2.4-7.1,4.7-10.5,7.1 M680.3,664.1c-5.7-4-11.4-8.1-17.2-12.1c-0.4-0.3-0.9-0.3-1.4-0.4
		c0.2,0.6,0.5,1,0.9,1.2c5.7,3.8,11.3,7.7,17,11.5c0.5,0.4,1,0.8,1.5,1.1c0.3,0.2,11.6,7.9,11.9,8.1c0-0.1-10.8-8-10.8-8.1
		 M732.9,586.1c2.6,2.2,6.3,2.9,9.6,0.7c2.8-1.8,4-6,2.8-8.9c-1.6-3.6-5-5.5-8.8-4.7c-3.3,0.7-5.7,3.9-5.7,7.6
		c0,1.9,0.2,3.2,1.7,4.7C732.5,585.7,732.7,586,732.9,586.1z M564.9,585.6c1.6-1.5,1.8-2.9,1.8-4.8c0-4.7-3.5-8-8.1-7.7
		c-4.2,0.3-7.3,4.1-6.8,8.5c0.4,3,2.1,5.1,5,6.1c2.8,0.9,5.5,0.8,7.6-1.6C564.6,586,564.8,585.8,564.9,585.6z M548,1139.6
		c0.6-2.9,1.4-3.5,4.2-3.6c0.6,0,1.3,0,1.9,0c17.3,0.1,34.6,0.3,51.8,0.3c28,0.1,56,0.1,84,0.1c18.7,0,37.4-0.2,56.2-0.4
		c2.1,0,4.1,0.4,5.5,2.1c0.4-0.2,0.7-0.3,1-0.4c17.6-8.1,34.1-17.9,49.3-29.9c47.9-37.9,78.6-86.6,91.6-146.4
		c3.7-16.8,5.4-33.8,5.5-51c0-17.7-1.8-35.3-5.5-52.6c-2.8-13-6.5-25.7-11.2-38.1c-7.5-19.5-17.2-37.8-29.3-54.9
		c-20.4-28.9-45.8-52.4-76.1-70.7c-17.6-10.6-36.2-18.8-55.7-24.8c-7.6-2.3-15.2-4.6-23-5.6c-0.5-0.1-1.1-0.1-2-0.1
		c1.4,4.7,2.4,9.2,3.8,13.7c1.2-0.4,2-0.7,2.8-0.9c3.3-0.8,6.9,0.6,8.8,3.5c1.9,2.8,1.8,6.8-0.3,9.5c-2.7,3.5-7.4,4.3-11.1,2
		c-2.8-1.8-5.2-6.4-2.7-10.8c0.4-0.7,0.7-1.4,1.1-2.1c-0.4-0.3-0.6-0.6-0.8-0.8c-7.8-5.2-15.5-10.5-23.3-15.7c-0.9-0.6-2.2-1-3.4-1
		c-14.9-0.8-29.9-0.8-44.8,0.1c-1.6,0.1-2.9,0.6-4.2,1.5c-7.1,4.9-14.3,9.7-21.5,14.5c-0.6,0.4-1.1,0.9-1.8,1.4
		c0.4,0.8,0.8,1.5,1.2,2.2c1.4,2.5,1.3,5.1,0.1,7.6c-1.9,3.9-6.7,5.5-10.7,3.8c-3.9-1.8-5.8-6.2-4.4-10.2c1.4-4.1,5.8-6.4,10-5.2
		c0.8,0.2,1.6,0.5,2.6,0.8c1.2-4.5,2.4-8.9,3.7-13.6c-1.5,0.2-2.6,0.3-3.7,0.4c-11.3,1.4-22,4.7-32.7,8.5c-6.3,2.3-12.5,5-18.6,7.6
		c-4.6,1.9-9.1,3.9-13.5,6.1c-20.9,10.8-39.8,24.3-56.9,40.4c-10.3,9.7-19.7,20.3-28.3,31.6c-10,13.2-18.5,27.2-25.7,42.1
		c-4.9,10-9,20.3-12.5,30.9c-3.9,11.8-6.9,23.8-9,36c-1.6,9.1-2.5,18.2-3.1,27.4c-1,15.8-0.5,31.5,1.7,47.1
		c1.2,8.5,2.8,16.9,4.6,25.2c4,17.7,10.1,34.6,17.9,51c9.4,19.7,21.2,37.7,35.3,54.3c8.7,10.2,18.1,19.6,28.3,28.3
		c9.7,8.2,19.9,15.6,30.6,22.2c9.7,6,19.7,11.3,30.1,15.9C546.5,1139.1,547.3,1139.3,548,1139.6z M567.5,584.5
		c-0.4,0.3-0.5,0.4-0.6,0.5c-3,4.1-5.9,5.1-10.8,3.9c-0.8-0.2-1.8-0.4-2.6-0.2c-2,0.3-4.1,0.7-6.1,1.3c-4,1.2-7.9,2.6-11.8,3.9
		c-7.2,2.5-14.1,5.6-21.1,8.6c-11,4.7-21.8,9.7-32.1,15.7c-20.9,12.2-40.9,25.6-58.3,42.7c-2.3,2.3-4.5,4.8-6.6,7.3
		c-3.4,4.2-6,8.8-7.4,14.1c-2.1,7.4-3,14.9-3.4,22.5c-0.4,7.8-1,15.6-2.4,23.3c-1.7,8.9-6,16.1-13.5,21.2c-3.6,0.9-3.5,3.5-2.7,6.3
		c0.1,0.2,0.1,0.5,0.1,0.7c0.7,2.2-0.2,3.7-2.1,4.7c-1.6,0.9-3.2,1.8-4.9,2.8c0.3,1.9,0.5,3.7,0.8,5.5c0.8,5,0.8,5-3.3,7.9
		c-1.4,1-2.8,2-4.2,3c0.3,1.1,0.5,2,0.8,2.8c0.6,2.2,0.1,3.9-1.6,5.6c-4,3.7-8.3,6.9-13.1,9.7c-4.7,2.7-9.4,5.5-14,8.4
		c-8.7,5.4-15.2,12.8-20.6,21.5c-1.6,2.7-1.5,5.5-0.6,8.3c0.8,2.6,3,3.6,5.5,2.4c1.3-0.6,2.7-1.5,3.7-2.6c3.5-3.7,5.5-8.2,5.8-13.4
		c0-0.4-0.1-0.8,0.1-1.2c0.2-0.5,0.5-1.1,0.9-1.2c0.4-0.1,1,0.4,1.2,0.8c0.5,0.8,0.8,1.7,1.3,2.5c6.8,10,4.5,23-3,30.4
		c-2,2-4.1,3.8-6.3,5.5c-3.2,2.4-6.9,2.9-10.7,2.3c-2.3-0.4-4.2-1.5-5.6-3.4c-0.3-0.4-0.7-0.7-1.3-1.2c-0.2,1.2-0.4,2-0.5,2.9
		c-0.9,7.9-1.8,15.7-2.6,23.6c-0.4,3.7-0.6,7.5-0.6,11.3c-0.1,3.1,2.9,6.9,7.2,5.3c4.1-1.6,5.6-6.6,3.1-10.1c-1.3-1.8-1.2-2,0.6-3.1
		c6-4,12-7.9,18-11.9c10-6.6,20.1-13.2,30.1-19.7c1.1-0.7,2.3-1.4,3.6-1.9c0.4-0.2,1.2-0.2,1.5,0.1c0.3,0.2,0.2,1,0.1,1.5
		c-0.1,0.5-0.4,0.9-0.6,1.3c-4.3,9.4-8.6,18.7-12.9,28.1c-3.8,8.4-7.7,16.7-11.6,25c-0.7,1.6-1.6,3-2.4,4.4
		c-1.1-0.2-1.9-0.4-2.7-0.5c-0.9-0.1-1.8-0.1-2.6,0c-4.1,0.4-6.5,3-6.6,7.1c-0.1,3.4,0.8,6.5,2.3,9.4c3.4,6.6,8.4,11.7,15.1,15
		c4.6,2.3,9.3,3.6,13.9-0.3c0.9-0.7,1.7-0.3,1.8,0.8c0.4,4.3-0.2,8.5-2.9,12.1c-0.3,0.4-0.6,0.9-1,1.5c0.8,0.5,1.5,0.8,2.2,1.2
		c1.5,0.8,3,1.6,4.4,2.5c1.5,1,1.5,1.4,0.4,2.9c-1.4,1.8-2.8,3.7-4.3,5.7c1.2,1.3,2.5,2.5,3.7,3.8c1.3,1.3,2.5,2.7,3.7,4
		c0.7,0.8,1.6,1.7,1,3c-0.6,1.3-1.8,0.8-2.8,0.8c-3.9-0.1-6.9,1.6-9.3,4.6c-1.7,2.2-2.9,4.6-3.6,7.3c-2.7,10.6-1,20.5,5.2,29.5
		c2.4,3.5,5.6,6.1,9.9,7.1c0.7,0.2,1.4,0.9,2,1.5c0.9,1.1,1.1,2.4,1,3.8c-0.1,1.7-0.2,3.5-0.3,5c1.9,0.9,3.6,1.7,5.2,2.5
		c1.4,0.7,1.9,1.8,1.5,3.4c-0.4,1.5-0.6,3.1-0.9,4.5c0.6,0.3,0.9,0.4,1.2,0.6c2,1.1,4.1,2.1,6.1,3.3c1.4,0.8,2.1,2.1,1.5,3.9
		c-0.4,1.3-0.6,2.6-0.8,4c0.7,0.4,1.2,0.7,1.8,1c8.7,4.8,15.6,11.2,19.8,20.5c2.9,6.4,4.5,13,5.4,19.8c1.9,14.1,4.9,28,10.2,41.3
		c3,7.5,6.5,14.8,11.7,21.1c2,2.5,3.8,5.1,5.5,7.9c1.5,2.5,3.4,4.6,5.7,6.3c1.9,1.3,3.8,2.7,5.7,4c19.3,13.1,39.7,24,61.2,32.8
		c0.8,0.3,1.6,0.6,2.5,0.9c0.1-0.9,0.2-1.4,0.2-2c0.1-9.1,0.3-18.2,0.3-27.3c0-9-0.2-18.1-0.3-27.1c0-3.3,1-4.3,4.3-4.3
		c5.3,0,9.9-1.8,13.9-5.1c0.6-0.5,1.2-1.2,1.9-2c-1.1-0.6-1.9-1-2.6-1.3c-46.5-23.1-84.5-55.9-113.2-99.3
		c-26.9-40.7-42.1-85.5-44.8-134.3c-1-18.3-0.1-36.5,3-54.5c8.9-52.2,31.8-97.3,68.6-135.2c32.4-33.3,71.2-56,115.7-69.1
		c8.6-2.5,17.2-4.8,26.1-5.9c2.5-0.3,5-0.8,7.5-1.2c0.1-0.3,0.3-0.5,0.3-0.7c1.9-6.8,3.7-13.6,5.5-20.4c0.2-0.7,0-1.6-0.3-2.3
		c-1.4-3.2-2.7-6.6-3-10.1c-0.2-2.7-1.6-4.3-3.6-5.9c-9.6-7.3-19-14.9-28.5-22.3C572.4,588.1,570,586.3,567.5,584.5z M775.4,1218.8
		c1.3-0.5,2.1-0.8,2.9-1.2c4.5-2,9.1-4,13.6-6.1c19.3-9.1,37.5-20.1,54.7-32.7c0.6-0.5,1.3-1,1.7-1.6c2-2.9,3.7-6,5.9-8.7
		c5.2-6.3,8.7-13.4,11.7-20.8c5.3-13.4,8.4-27.3,10.3-41.5c1-7.3,2.6-14.5,6-21.1c3-6,6.9-11.3,12.6-15.1c2.7-1.8,5.4-3.6,8.3-5.5
		c-0.1-0.5-0.2-1.2-0.4-1.9c-1-4.3-0.8-4.8,3.1-7c0.8-0.5,1.7-0.9,2.6-1.3c0.8-0.4,1.7-0.8,2.5-1.1c0.1-0.4,0.1-0.5,0.1-0.7
		c-0.2-1.3-0.5-2.5-0.7-3.8c-0.4-2.2-0.3-2.5,1.6-3.7c1-0.6,2-1,3-1.5c2.1-0.8,2.1-0.8,1.9-3.1c-0.1-1.4-0.2-2.7-0.2-4.1
		c0-2,1.3-3.8,3-4.2c4.6-1.1,7.8-4,10.3-7.7c2.3-3.2,3.8-6.8,4.8-10.7c1.8-7.1,1.8-14.1-1-21c-2.3-5.7-6.1-9.5-12.9-9.1
		c-1.9,0.1-2.6-1.3-1.5-2.8c1.2-1.6,2.5-3.1,3.9-4.5c1.3-1.4,2.8-2.8,4.2-4.2c-1.6-2.1-3.1-4-4.5-5.9c-0.8-1.1-0.9-1.6,0.2-2.4
		c1.4-1,2.9-1.7,4.3-2.6c0.8-0.5,1.7-0.9,2.5-1.3c-0.2-0.4-0.2-0.7-0.4-0.9c-2.8-3.5-3.9-7.4-3.4-11.9c0.1-0.7,0.1-1.6,0.6-1.9
		c0.8-0.6,1.4,0.2,2,0.7c1.6,1.3,3.4,1.9,5.4,1.7c1.9-0.2,3.9-0.4,5.6-1.1c8.7-3.6,14.8-9.8,18.4-18.6c1-2.5,1.4-5.1,1.1-7.8
		c-0.4-2.9-1.9-4.9-4.7-5.7c-2.3-0.7-4.6-0.9-7.3,0c-1-1.9-2.1-3.9-3-5.9c-8-17.3-15.9-34.6-23.9-51.9c-0.2-0.5-0.5-1-0.6-1.6
		c-0.2-0.9,0.2-1.4,1.1-1.3c0.6,0.1,1.2,0.3,1.8,0.7c1.5,0.8,2.9,1.7,4.3,2.6c14.2,9.3,28.3,18.7,42.5,28c1.4,0.9,2.8,1.8,4.2,2.7
		c1.3,0.9,1.3,1.3,0.5,2.5c-0.5,0.7-1,1.5-1.3,2.3c-0.8,2.5,0.1,5.4,2.2,7.1c2.3,1.9,4.8,1.8,7.6,0.4c-0.4-13.5-1.5-26.9-3.7-40.3
		c-0.5,0.2-0.8,0.2-0.9,0.4c-4.6,3.2-10.4,3.3-15,0.1c-3.2-2.2-6.2-4.9-8.6-8c-6-7.6-6.8-18.9-1.8-27.1c0.7-1.2,1.3-2.4,2-3.5
		c0.3-0.6,0.7-1.2,1.4-0.9c0.4,0.2,0.6,0.8,0.9,1.3c0.1,0.3,0,0.6,0.1,0.9c0.2,4.9,2,9.2,5.2,12.9c1,1.2,2.3,2.2,3.7,3
		c3,1.7,5.5,0.4,6.3-2.9c0.8-3.4,0.1-6.4-1.9-9.3c-5.6-8.2-12.2-15.4-20.8-20.5c-5.1-3.1-10.3-6.2-15.4-9.2c-4-2.4-7.5-5.4-10.9-8.6
		c-1.2-1.1-1.6-2.3-1.3-3.9c0.3-1.3,0.6-2.6,0.9-4c-1.9-1.4-3.8-2.8-5.7-4.1c-1.7-1.2-2.5-2.7-2-4.7c0.2-0.6,0.2-1.3,0.3-1.9
		c0.3-1.9,0.6-3.8,0.8-5.6c-2-1.2-3.9-2.3-5.7-3.4c-1.3-0.8-1.6-1.9-1.4-3.3c0.3-1.4,0.4-2.9,0.7-4.3c0.3-1.3-0.1-2-1.3-2.6
		c-5.5-3.1-9.8-7.3-12.5-13.2c-2.2-4.8-3.3-9.9-3.8-15c-0.8-7.8-1.4-15.6-1.9-23.4c-0.5-7.2-2-14.3-4.6-21c-0.7-1.9-1.8-3.8-3-5.4
		c-3.4-4.7-7.4-8.8-11.7-12.6c-36.4-32.4-77.8-55.8-124.4-70.2c-2.1-0.7-4.1-0.9-6.3-0.3c-3.4,0.9-6.3-0.2-8.7-2.7
		c-0.5-0.5-0.9-1.1-1.5-1.8c-0.7,0.4-1.3,0.7-1.9,1.1c-3.3,2.5-6.5,4.9-9.7,7.4c-8.8,6.9-17.6,13.8-26.5,20.7c-0.7,0.5-0.9,1-1,1.8
		c-0.4,4.2-1.5,8.2-3.2,12c-0.6,1.2-0.7,2.3-0.3,3.7c1.8,6.3,3.4,12.6,5.2,19c0.2,0.8,0.2,0.7,0.5,1.7c1.3,0,2.9,0.3,4.2,0.4
		c1.3,0.1,2.9,0.4,4.1,0.6c2.5,0.2,4.7,0.5,7.2,1.1c32,7.1,62,19.2,89.4,37.3c44.9,29.5,77.8,68.9,98.1,118.7
		c10.5,25.8,16.3,52.7,17.8,80.4c0.6,10.2,0.4,20.5-0.3,30.7c-0.8,12.2-2.4,24.3-5,36.3c-11.2,52-35.6,97-72.5,135.2
		c-23,23.8-49.4,43-79.1,57.7c-0.8,0.4-1.5,0.8-2.8,1.6c1.3,1,2.2,1.8,3.2,2.5c4,3.2,8.5,4.9,13.7,4.9c3.3,0,4.2,0.9,4.2,4.3
		c0,2.9,0,5.8,0,8.6c0,14.5,0,28.9,0,43.4C775.4,1216.6,775.4,1217.4,775.4,1218.8z M551.1,1251.8c32.9,0,65.7-0.7,98.6-0.7
		c32.9,0,65.8,0.7,98.7,0.7c0.1-0.4,0.1-0.6,0.1-0.7c0-0.3,0-0.6-0.1-1c-0.7-5.8,1.3-10.7,5.4-14.8c4.4-4.5,9.9-6.6,16.1-7
		c1-0.1,2-0.1,3-0.1c0-22.2,0-44.1,0-66.2c-1,0-1.9,0-2.8,0c-7.1-0.4-13.2-3-17.8-8.6c-3-3.7-4.4-7.9-4-12.7c0.1-0.7,0-1.5,0-2.3
		c-66,0.9-131.7,0.8-197.3,0c-0.1,0.4-0.2,0.5-0.2,0.7c0,0.2,0,0.5,0,0.7c0.9,5.8-1,10.7-5,14.9c-4.5,4.8-10.2,7-16.7,7.3
		c-0.9,0-1.8,0.1-2.7,0.2c0,22.2,0,44,0,65.8c0.3,0.1,0.4,0.2,0.6,0.3c0.8,0,1.6,0,2.4,0.1c6.2,0.3,11.7,2.5,16.1,7
		c3.2,3.2,5.1,6.9,5.5,11.4C551.2,1248.3,551.1,1249.9,551.1,1251.8z M607.4,612.5c-0.1,3.3,0.5,7.3,1.9,11.1
		c5.3,14.8,16,23.5,30.8,27.6c4.1,1.1,8.2,1.2,12.3,0.9c3.2-0.3,6.4-1.3,9.5-2.3c16.9-6,31.4-22.9,27.4-45.1
		c-2.1-11.6-8.3-20.6-18.1-27.1c-3.5-2.3-7.4-4.2-11.4-5.5c-5.2-1.6-10.4-2.9-15.9-1.7c-12.3,2.8-22.8,8.4-29.9,19.4
		C609.7,596.5,607.3,603.7,607.4,612.5z M966.6,929.9c-0.1-0.1-0.2-0.1-0.4-0.2c-0.3,0.4-0.6,0.9-0.9,1.3c-2.2,3-4.3,6.2-6.7,9
		c-6.4,7.2-13.3,13.8-23.4,16.6c1,1.5,1.7,2.8,2.8,4c2.8,3.3,5.6,3.7,9.2,1.3c1.4-0.9,1.8-0.8,2.8,0.4c0.9,1,1.8,2.1,2.7,3
		c2.9,2.8,7.7,2.1,9.1-2.1c1.2-3.5,2.7-7.1,3.3-10.7c0.9-5.6,1.1-11.3,1.5-16.9C966.7,933.7,966.6,931.8,966.6,929.9z M362.1,956.5
		c-7.3-1.9-12.8-6.1-17.9-10.9c-5.1-4.7-9.4-10-13.3-16.4c-0.2,0.9-0.3,1.2-0.3,1.5c0.4,6.6,0.7,13.2,1.2,19.8
		c0.4,4.6,2,8.8,3.8,13.1c1.4,3.5,5.8,4.4,8.6,2c1-0.8,1.9-1.7,2.7-2.7c1.7-2,1.7-2.1,3.8-0.6c2.4,1.6,4.6,1.6,6.9,0
		C359.7,960.9,361,958.9,362.1,956.5z M945.4,1021.8c0.1,0.1,0.3,0.2,0.4,0.3c0.8-0.9,1.6-1.7,2.3-2.6c2.6-3.4,4.2-7.3,5.6-11.4
		c2-6.2,3.1-12.6,3.5-19c0.2-2.5,0.1-5,0-7.4c0-1-0.3-2.1-1-2.8c-2.4-2.6-6-2.9-9-1c-0.5,0.3-0.9,0.6-1.4,0.9
		c-2.3-7-8.2-6.8-10.9-2.9c0.1,0.2,0.2,0.4,0.4,0.5c3.6,2.8,5.9,6.5,7.6,10.6c3.5,8.5,4.5,17.4,3.6,26.6
		C946.3,1016.3,945.8,1019,945.4,1021.8z M351.8,978.6c-1.5-0.7-2.8-1.4-4.1-1.8c-2.3-0.7-4.2,0.3-6,1.6c-1.6,1.1-1.5,2.7-1.5,4.3
		c-0.2,8.9,1,17.5,3.8,25.9c1.3,4,3,7.9,5.7,11.3c0.6,0.8,1.4,1.5,2.1,2.2c0.2-0.1,0.3-0.2,0.5-0.3c-0.1-0.7-0.2-1.5-0.4-2.2
		c-1.6-8.3-1.7-16.7,0.3-25c1.7-7.2,4.4-13.8,10.4-18.7c0,0,0-0.2,0.1-0.5c-1.6-1.4-3.3-2.9-5.8-2.3
		C354,973.8,352.2,975.6,351.8,978.6z M632.5,572c5.3-1.3,10.4-2.6,15.6-3.8c0-0.1,0.1-0.3,0.1-0.5c0-12.1,0-24.1-0.1-36.2
		c0-0.4-0.2-0.8-0.3-1.2c-0.1,0-0.3,0-0.4,0C642.4,544.1,637.5,558,632.5,572z M649.7,530.3c-0.6,2.1-0.7,35.5-0.2,37.9
		c5.2,1.3,10.2,2.5,15.2,3.7C664,568.5,650.7,531.6,649.7,530.3z M608.7,596.4c2.8-4.5,5.5-8.8,8.2-13.2c-0.3,0-0.5-0.2-0.8-0.2
		c-14.6,0.1-29.1,0.2-43.7,0.3c-0.1,0-0.1,0.1-0.1,0.1c0,0.1,0,0.2,0,0.4C584.4,588,596.6,592.2,608.7,596.4z M680.7,583.3
		c2.7,4.5,5.4,8.8,8,13.1c10.4-3.1,34.2-11.6,35.7-12.7C722.8,583.2,684,582.8,680.7,583.3z M611.5,632.3c-0.1,0.1-0.3,0.2-0.3,0.3
		c-3.7,13.3-7.4,26.6-11.1,39.8c-0.1,0.4-0.1,0.8-0.2,1.2c0,0.1,0,0.2,0.1,0.2c0,0,0.1,0,0.5,0.1c7-10,14-20.2,20.9-30.1
		C618,639.9,614.8,636.2,611.5,632.3z M697.2,674c0.2-0.1,0.4-0.2,0.6-0.3c-3.9-13.8-7.7-27.7-11.7-42c-1.8,2.4-3.2,4.4-4.8,6.3
		c-1.6,1.9-3.5,3.7-5.3,5.6C683.1,653.8,690.2,663.9,697.2,674z M898,1080.5c0,0.2,0.1,0.4,0.1,0.6c1.7-0.1,3.5-0.1,5.2-0.5
		c9.3-1.8,17.6-6,25.1-11.8c3.3-2.5,6.2-5.3,8.6-8.6c0.6-0.7,1-1.5,1.5-2.3c-1-0.1-1.6,0-2.2,0.3c-1.8,0.8-3.6,1.6-5.5,2.5
		c-1.9,0.9-2,0.8-2.3-1.3c-0.4-2.7-0.9-5.4-1.3-8.1C921.6,1065.2,911.1,1074.2,898,1080.5z M359.2,1057.5c-0.1,0.2-0.2,0.3-0.3,0.5
		c0.1,0.2,0.1,0.5,0.2,0.6c0.4,0.6,0.8,1.2,1.2,1.8c9,10.9,20.6,17.4,34.3,20.4c1.5,0.3,3.1,0.4,4.6-0.1
		c-13.1-6.5-23.6-15.5-29.1-29.4c-0.7,2.9-1.1,5.7-1.5,8.6c-0.2,1.4-0.5,1.7-1.8,1.1c-1.8-0.8-3.6-1.7-5.4-2.5
		C360.8,1058.1,360,1057.8,359.2,1057.5z M930,747.9c-8.4-12.6-15.5-25.7-24.8-37.8c0,1.2,0,2,0,2.7c0.1,2.6,0.3,5.1,0.4,7.6
		c0.2,7.4,2.9,13.6,8.9,18c4.7,3.4,9.8,6.3,14.7,9.4C929.3,748,929.5,747.9,930,747.9z M367.6,747.7c0.2,0.1,0.3,0.3,0.5,0.4
		c3-1.8,6.1-3.5,9-5.4c2.7-1.8,5.3-3.6,7.7-5.7c3.8-3.3,6.2-7.5,6.7-12.6c0.4-4.1,0.6-8.3,0.9-12.4c0-0.5,0-1,0-2
		C382.9,722.3,375.7,735.3,367.6,747.7z M573.3,581.6c0,0.2,0,0.3,0,0.5c0.4,0,0.8,0.1,1.2,0.1c14.1,0,28.3,0,42.4,0
		c1.1,0,1.8-0.5,2.5-1.1c2.3-1.9,4.7-3.6,7-5.4c0.5-0.4,1.1-0.8,1.6-1.2c-0.1-0.2-0.1-0.3-0.2-0.5
		C609.4,574.9,591.3,577.4,573.3,581.6z M717.3,582.2c0-0.2,0-0.4,0-0.5c-7.7-1.8-15.5-3.2-23.3-4.3c-14.2-2.1-21.7-2.8-23.5-2.1
		c0.6,0.4,1.1,0.8,1.6,1.2c1.9,1.5,4,3,5.8,4.6c1,0.9,2,1.2,3.2,1.2c10.6,0,21.3,0,31.9,0C714.5,582.2,715.9,582.2,717.3,582.2z
		 M890.6,804.1c-3.6-1.8-13.6-5.3-15.1-5.3c2.8,6.4,5.6,12.8,8.6,19.7C886.4,813.4,888.5,808.8,890.6,804.1z M885.7,821.4
		c-0.1,0.1-0.2,0.2-0.4,0.4c2.1,6.5,4.2,13,6.4,20c2.9-4.7,5.5-9,8.1-13.4C895,826,890.3,823.7,885.7,821.4z M648.8,524.2
		c0.7-0.2,1.5-0.1,2.1-0.5c2.5-1.5,4.7-3.3,5.6-6.2c0.5-1.5,0.1-2.9-0.8-4.1c-1.4-1.8-3.1-3.4-5.4-4.3c-1.1-0.5-2.1-0.5-3.2,0
		c-2.3,0.9-4.1,2.5-5.5,4.4c-0.9,1.2-1.1,2.5-0.6,4.1c0.7,2.3,2.4,3.7,4.1,5.2C646.1,523.8,647.4,524.2,648.8,524.2z M879.1,780.2
		c-5.2-1.1-10-1.9-15.2-2.6c3.4,6,6.5,11.6,9.9,17.7C875.7,789.9,877.3,785.2,879.1,780.2z M896.7,863.6c3.4-3.8,6.6-7.3,9.6-10.7
		c-1.2-1.4-11.4-7.3-13.8-8C893.9,851,895.3,857,896.7,863.6z M862.8,775.6c1.5-4.9,3-9.3,4.2-14c-5.3-1-10.2-2.1-15.6-2.8
		C855.2,764.5,858.8,769.8,862.8,775.6z M900,887.9c3.2-2.6,9.2-8.9,9.9-10.4c-4-2.9-7.7-6.3-12.3-9.2
		C898.4,875,899.2,881.3,900,887.9z M599.6,684.4c0-3.9-3.2-6.9-7-6.9c-3.6,0-7,3.2-7,6.5c0,3.8,3.7,7.6,7.3,7.5
		C597.3,691.2,599.3,688.7,599.6,684.4z M704.8,677.4c-3.9,0-7.1,3.1-6.9,7c0.2,4.3,2.4,6.9,6.8,6.9c3.7,0,7.2-3.7,7.2-7.5
		C711.8,680.5,708.3,677.4,704.8,677.4z M849.7,756.7c0.7-5.3,1.5-10,1.6-14.8c-3.1-0.5-12-0.6-13.7,0
		C841.6,746.7,845.5,751.5,849.7,756.7z M900.8,917.9c-0.5,6.8-1,12.9-1.5,19.2c0.5-0.1,0.8-0.1,0.9-0.3c3-2.4,6-4.8,8.9-7.2
		c1.4-1.1,1.3-1.3,0.1-2.7c-1.4-1.6-2.9-3.2-4.3-4.8C903.7,920.8,902.4,919.6,900.8,917.9z M894.8,966.6c-0.2,0-0.4,0-0.6,0.1
		c-1.7,6.2-3.4,12.4-5,18.6c0.2,0.1,0.3,0.2,0.5,0.3c3.2-1.8,6.5-3.6,9.7-5.5c1-0.6,1.3-2.1,0.8-3.2
		C898.4,973.4,896.6,970,894.8,966.6z M821.7,724.8c0,0.2-0.1,0.3-0.1,0.5c4.4,4.4,8.7,8.8,13.1,13.3c0.2-0.1,0.4-0.2,0.5-0.2
		c0.3-4.2,0.6-8.5,0.8-12.9C831,725.2,826.4,725,821.7,724.8z M900.6,895.5c-0.3,4.1,0.1,17.3,0.7,18.6c3-3.3,6.6-5.7,9-8.7
		C907,902,903.8,898.8,900.6,895.5z M412.1,815.8c0.2,0,0.4-0.1,0.5-0.1c2.3-5.4,4.7-10.7,7.3-16.7c-4.7,1.7-8.8,3.2-13.1,4.8
		C408.6,808,410.3,811.9,412.1,815.8z M906.4,951.5c-2.4-3.3-4.8-6.5-7.2-9.7c-0.2,0-0.4,0.1-0.5,0.1c-1,6.2-2.1,12.3-3.2,19
		C899.6,957.8,902.8,954.4,906.4,951.5z M404.4,839.7c2-6,3.7-11.5,5.7-17.4c-4.5,2.2-8.4,4.1-12.6,6.1
		C399.8,832.2,402,835.7,404.4,839.7z M880,1009.9c0.6,0,1,0.1,1.2,0c2.4-0.7,4.9-1.4,7.3-2.2c1.7-0.6,2.4-2.2,1.9-4
		c-0.9-3.1-1.9-6.2-2.9-9.3c-0.1-0.5-0.5-0.9-0.8-1.5C884.4,998.5,882.3,1004,880,1009.9z M431.1,778.4c-0.1-0.2-0.2-0.3-0.3-0.5
		c-4.1,0.7-8.2,1.2-12.4,2.3c1.5,4.3,2.7,8.5,4.6,12.7C425.8,787.9,428.5,783.2,431.1,778.4z M430.3,761.5c1.3,4.2,2.4,7.8,3.7,12.1
		c3.4-5,6.5-9.5,10-14.6C439.2,759.9,435,760.7,430.3,761.5z M819.6,723.4c0.7-4.4,0.5-8.4,0.5-12.6c-2.5,0.2-4.6,0.2-6.7,0.6
		c-2,0.4-4.2-0.1-6.4,1.1C811.2,716.2,815.2,719.7,819.6,723.4z M390.7,852.5c3,3.3,5.6,6.2,8.4,9.4c1.2-5.5,2.4-10.6,3.5-15.6
		c-0.1-0.1-0.3-0.2-0.4-0.3C398.5,848.1,394.8,850.2,390.7,852.5z M952.4,794c-2.5-4.9-5-9.8-8.6-14.7c-0.2,0.9-0.3,1.3-0.4,1.7
		c-0.3,2.8-0.3,2.7-2.9,2.7c-1.9-0.1-3.8,0-5.4,1.4C941,788.1,946.7,791.1,952.4,794z M353.7,779.8c-0.2,0-0.3-0.1-0.5-0.1
		c-3.1,4.6-5.8,9.4-8.7,14.6c6.2-3.2,11.9-6.2,17.8-9.3c-0.5-0.3-0.9-0.7-1.3-0.8c-1.6-0.2-3.1-0.5-4.7-0.5c-1.9,0-2.2-0.2-2.4-2.1
		C353.9,781,353.8,780.4,353.7,779.8z M771.9,688.1c-0.1,0.2-0.2,0.4-0.2,0.6c2.4,1.4,4.7,2.9,7.1,4.2c2.4,1.4,4.7,3.1,7.5,4.5
		c-0.4-3.9-0.8-7.3-1.2-11.1C780.5,686.9,776.2,687.5,771.9,688.1z M780.3,1124.9c-5.2,2.9-10,5.7-15.3,8.7c0.8,0.3,1.1,0.5,1.5,0.5
		c2.9,0.8,5.8,1.5,8.8,2.2c1.7,0.4,2,0.3,2.6-1.5c0.8-2.7,1.6-5.3,2.3-8C780.2,1126.4,780.2,1125.8,780.3,1124.9z M395.8,885.9
		c0.3-2.8,0.7-5.4,1-8c0.3-2.5,0.6-5.1,0.9-7.6c-0.2-0.1-0.3-0.2-0.5-0.2c-3.3,2.5-6.5,5.1-9.6,7.5
		C390.3,880.4,392.9,883,395.8,885.9z M446,741.7c0.2,2.3,0.3,4.3,0.6,6.3c0.3,2,0.2,4,1,6.3c3.6-4.4,6.9-8.4,10.5-12.7
		C453.8,741.7,450.1,741.7,446,741.7z M763,1135.1c-0.2-0.1-0.3-0.2-0.5-0.3c-1.2,0.6-2.4,1.2-3.6,1.7c-2.3,1.1-4.6,2.2-6.9,3.2
		c-1.1,0.5-1.1,1.4-1,2.4c0,0.8,0.1,1.6,1.2,1.8c2.7,0.6,5.4,1.3,8.2,2C761.3,1142.3,762.1,1138.7,763,1135.1z M789.1,698.7
		c0,0.2,0,0.4-0.1,0.6c4.3,3.1,8.6,6.2,12.9,9.3c0.2-0.1,0.3-0.2,0.5-0.3c-0.5-3.7-1.1-7.5-1.7-11.4
		C796.6,697.1,792.9,698.2,789.1,698.7z M473.8,725.4c-0.1-0.2-0.2-0.3-0.3-0.5c-4,0.2-7.9,0.3-11.8,0.5c-0.4,2.7,0.2,9.9,0.9,11.3
		C466.4,732.9,470.1,729.2,473.8,725.4z M868.6,1032.9c0.3,0.1,0.5,0.3,0.6,0.3c2.8-0.9,5.6-1.7,8.4-2.7c1.3-0.5,1.8-1.4,1.6-2.9
		c-0.1-0.8-0.3-1.6-0.5-2.3c-0.6-2.6-1.1-5.2-1.7-7.7c-0.1,0-0.3,0-0.4,0C873.9,1022.6,871.2,1027.7,868.6,1032.9z M767.9,686.6
		c0.1-0.2,0.3-0.4,0.3-0.5c-0.9-3.2-1.8-6.4-2.8-9.6c-0.3-0.9-0.9-0.9-1.7-0.7c-2.9,0.9-5.8,1.8-8.7,2.7c-0.5,0.2-0.9,0.4-1.7,0.8
		C758.4,681.8,763.1,684.2,767.9,686.6z M784.4,1122.3c0.5,0.2,0.7,0.3,0.9,0.3c2.6,0.5,5.3,0.9,7.9,1.5c2.1,0.5,2.6,0.4,3.1-1.8
		c0.5-2.2,1-4.5,1.5-6.8c0.2-0.7,0.2-1.5,0.3-2.7C793.3,1116.1,789,1119.2,784.4,1122.3z M857.3,1051.1c0.1,0.1,0.2,0.2,0.3,0.3
		c2.7-0.7,5.3-1.4,8-2.1c2.1-0.6,2.3-0.8,2.2-3c-0.2-2.6-0.4-5.2-0.7-7.8c-0.1-0.6-0.4-1.1-0.6-1.9
		C863.3,1041.6,860.3,1046.4,857.3,1051.1z M548.5,1143.2c-0.2-0.6-0.2-1.1-0.4-1.2c-4.4-2.1-8.7-4.1-13.6-6.4
		c0.9,3.7,1.7,7,2.6,10.5C541,1145.1,544.6,1144.2,548.5,1143.2z M396,935.6c-0.4-5.4-0.7-10.3-1.1-15.8c-1,1-1.7,1.6-2.3,2.2
		c-1.5,1.6-3,3.3-4.5,4.9c-1.2,1.3-1.2,1.7,0.2,2.9c2,1.7,4.1,3.3,6.1,4.9C394.9,935,395.3,935.1,396,935.6z M855,1055.4
		c-0.2-0.1-0.3-0.1-0.5-0.2c-3.2,4.3-6.5,8.6-9.7,12.9c0.1,0.2,0.2,0.3,0.3,0.5c2.7-0.2,5.4-0.3,8-0.7c1.2-0.1,1.8-1.2,1.8-2.2
		C855,1062.3,855,1058.8,855,1055.4z M401.7,968.6c-0.8,1.3-1.3,2.1-1.7,2.9c-0.9,1.8-1.9,3.5-2.7,5.3c-0.7,1.5-0.1,2.9,1.5,3.8
		c1.6,0.9,3.2,1.7,4.8,2.6c0.7,0.4,1.3,1.1,2.4,1C404.6,979.1,403.3,974.1,401.7,968.6z M735.9,671.6c0,0.2,0.1,0.4,0.1,0.6
		c4.8,2,9.6,3.9,14.4,5.9c0.1-0.1,0.3-0.2,0.4-0.3c-1.2-3.1-2.4-6.3-3.6-9.5C743.2,669.3,739.6,670.5,735.9,671.6z M813.9,1100.8
		c-0.2-0.1-0.4-0.1-0.5-0.2c-4.1,3.3-8.2,6.7-12.3,10c0.1,0.2,0.1,0.3,0.2,0.5c3.4,0,6.8,0.1,10.2,0.1c0.4,0,1.2-0.7,1.2-1.2
		C813.1,1107,813.5,1103.9,813.9,1100.8z M477.6,721.5c2.2-1.2,10.3-8.2,11-9.6c-3.7-0.1-7.3-1.2-11-0.9
		C477.6,714.5,477.6,717.8,477.6,721.5z M816.6,1097.7c0.1,0.2,0.1,0.3,0.2,0.5c2.9,0,5.9,0,8.8,0c1.2,0,1.8-0.8,2-2.3
		c0.3-2.6,0.7-5.2,1-7.8c0-0.4-0.2-0.8-0.3-1.4C824.2,1090.5,820.4,1094.1,816.6,1097.7z M386.9,905.3c2.3,2.3,4.7,4.8,7.9,7
		c-0.1-5.2,0.2-10.1,0.2-15.2C392.2,900,389.6,902.6,386.9,905.3z M524.6,688.3c-3.2-0.9-10.4-1.8-12.3-1.5
		c-0.1,2.9-1.1,5.9-0.6,9.2C516.1,693.4,520.1,691,524.6,688.3z M530.5,1134.3c0-0.2,0.1-0.4,0.1-0.7c-4.3-2.4-8.6-4.8-13.5-7.6
		c1.1,3.9,2.1,7.2,3.1,10.7C523.8,1135.9,527.2,1135.1,530.5,1134.3z M733,671.1c0.2-0.1,0.3-0.2,0.5-0.4c-1.4-2.9-2.8-5.8-4.3-8.9
		c-3.7,1.4-7.1,2.8-10.6,4.1c0,0.2,0,0.4,0,0.5C723.4,668,728.2,669.5,733,671.1z M542.9,679.1c-0.2-0.3-0.3-0.5-0.4-0.5
		c-3-1-6-2-9.1-2.9c-0.9-0.3-1.3,0.3-1.5,1.1c-0.5,1.7-1,3.3-1.5,5c-0.3,1.1-0.6,2.2-0.9,3.3c0.1,0.1,0.3,0.2,0.4,0.3
		C534.3,683.4,538.6,681.3,542.9,679.1z M496.8,696.7c-0.5,3.6-1,6.8-1.5,10c0.1,0.1,0.3,0.2,0.4,0.3c3.8-2.7,7.7-5.4,12-8.5
		C503.7,697.9,500.4,697.4,496.8,696.7z M841.8,1071.7c-3.9,4.3-7.4,8.3-10.9,12.2c0.1,0.1,0.2,0.2,0.2,0.3c3.4-0.7,6.8-1.3,10.4-2
		C841.5,1078.9,842.4,1075.6,841.8,1071.7z M410,995.9c-0.2,0-0.4,0-0.5,0c-0.9,2.7-1.8,5.4-2.5,8.1c-0.4,1.3,0.3,3,1.5,3.4
		c2.1,0.8,4.3,1.3,7,2.2C413.4,1004.7,411.7,1000.3,410,995.9z M399.1,958.5c0.1-0.1,0.3-0.2,0.4-0.2c-0.8-4.8-1.6-9.6-2.5-14.9
		c-2.2,3-4.1,5.5-6,8C393.8,953.9,396.4,956.2,399.1,958.5z M550.3,668.1c-1,2.6-1.9,5-2.8,7.3c-0.1,0.3-0.1,0.7-0.2,1.1
		c2.2-0.3,11.8-4.1,13.4-5.3C557.2,670.3,553.9,669.2,550.3,668.1z M578.1,666.1c-3.2-1.8-6.4-3.1-9.9-4.2c-1.3,2.9-2.8,5.4-3.9,8.6
		C569.2,668.9,573.6,667.5,578.1,666.1z M511.7,1122.6c-4.2-2.8-7.9-5.3-11.6-7.9c-0.2,0.1-0.3,0.2-0.5,0.3c0.6,2.8,1.2,5.6,1.9,8.4
		c0.2,0.9,1.1,1.2,2.1,0.9c1.1-0.4,2.3-0.5,3.4-0.8C508.4,1123.3,509.8,1123,511.7,1122.6z M655.6,658.1c-1.2-1.8-3.5-4.9-3.5-4.9
		s-2.7,0.2-3.7,0.2c-1,0-4-0.2-4-0.2s-2.5,2.7-4.8,4.9C644.8,658.1,650.1,658.1,655.6,658.1z M484.3,1102.5
		c-0.2,0.1-0.3,0.2-0.5,0.3c0.3,2.4,0.6,4.8,1,7.3c0.1,0.8,0.7,1.3,1.5,1.3c2.7,0,5.5-0.1,8.2-0.1c0-0.1,0.1-0.3,0.1-0.4
		C491.2,1108,487.8,1105.2,484.3,1102.5z M594,662.7c0-0.2,0.1-0.4,0.1-0.5c-3.1-1.5-6.2-3.1-9.4-4.7c-1.3,2.5-2.5,4.8-3.1,7.4
		C585.9,664.2,590,663.4,594,662.7z M420.3,1020.2c-0.2,0-0.4,0-0.5,0.1c-0.5,2.8-1,5.5-1.4,8.3c-0.1,1,0.6,1.6,1.5,1.9
		c1.7,0.6,3.3,1.1,5,1.6c0.5,0.1,1,0.1,1.7,0.2C424.4,1028,422.4,1024.1,420.3,1020.2z M716.4,665.5c-1.2-2.8-2.3-5.3-3.5-8
		c-3.2,1.7-6.1,2.8-8.7,4.7c1.4,0.5,2.7,0.8,4,1.1 M450.4,1068.5c0.1-0.2,0.2-0.3,0.3-0.5c-2.6-3.4-5.2-6.8-7.8-10.2
		c-0.4,2.7-0.5,5.2-0.4,7.8c0,1.1,0.6,2.1,1.8,2.3C446.3,1068.2,448.3,1068.3,450.4,1068.5z M478.7,1098.2c0.1-0.2,0.1-0.4,0.2-0.5
		c-3.1-2.9-6.2-5.8-9.3-8.7c-0.2,2.6,0,5,0.4,7.4c0.1,1,0.6,1.8,1.9,1.9C474.1,1098.2,476.4,1098.2,478.7,1098.2z M437.4,1050.8
		c0.1-0.1,0.2-0.3,0.3-0.4c-2.3-3.6-4.6-7.3-7-10.9c-0.2,0-0.3,0.1-0.5,0.1c-0.2,2.6-0.6,5.1-0.6,7.7c0,0.6,0.7,1.6,1.2,1.8
		C433,1049.8,435.2,1050.2,437.4,1050.8z M456.1,1074.4c-0.2,0.1-0.4,0.1-0.7,0.2c0.2,2.5,0.4,5.1,0.6,7.7c2.8,0.5,5.4,1,7.9,1.5
		c0.1-0.1,0.1-0.3,0.2-0.4C461.5,1080.4,458.8,1077.4,456.1,1074.4z M595.7,662.4c1.8-0.3,3.5-0.6,5.1-0.9c0.4-0.1,0.9-0.4,1.1-0.8
		c0.7-1.8,1.4-3.7,2-5.6c0.1-0.2-2.5-1.2-2.2-1.2 M695.2,654.1c-1.3,1.6-1.2,1-1.1,1.8c0.9,3.6,1.4,5.3,1.4,5.3s1.8,0.3,3.7,0.4
		c0.7,0.1,2.7,0.2,2.2-0.3 M660.1,658c2.8,0.1,5.4,0.3,7.9,0.4c0.1,0,0.2-0.2,0.3-0.3c0-0.1,0-0.4-0.1-0.4c-0.5-0.4-1-0.8-1.5-1.1
		c-1.7-1.2-3.7-2.2-3.7-2.2S661.7,656,660.1,658z M634,654.3c-1.2,0.8-3.8,2.6-5.3,3.7c2.7,0.6,5.1,0.4,8.2-0.1
		C635.7,656.7,635.4,655.4,634,654.3z"/>
	<path d="M564,585.8c-1.2,0.6-2.6,1.3-4.1,1.3c-3.6,0.1-7-2.8-7.4-6.4c0.1-1.9,0.4-3.6,2.3-4.9c0.4,1.7,0.4,3.4,1.2,4.6
		c0.8,1.2,2.3,2.2,3.8,2.8c1.4,0.6,3,0.7,4.9,1c0,0.2,0,0.5-0.1,1.1C564.4,585.5,564.4,585.6,564,585.8z"/>
	<path d="M732.8,584.9c-0.1-0.4-0.1-0.5,0-1.3c2.8,1,4.8-0.3,6.9-1.4c2.4-1.3,2.5-3.6,2.4-6.4c0.8,0.5,1.3,0.6,1.6,1
		c0.9,1.5,1.6,3,1,4.9c-1.4,4.3-5.8,6.5-10.1,5c-0.5-0.2-1.1-0.5-1.4-0.9C733,585.5,732.9,585.4,732.8,584.9z"/>
	<path d="M761.5,790.6c0.1-1.7,1.7-2.4,2.6-3.6c1.4-1.9,3.1-2.5,5.4-2.3c2.1,0.2,4.2,0.1,6.2-0.1c2.5-0.2,4.6,0.5,6.4,2.1
		c0.3,0.3,0.6,0.5,1.1,0.8c0.5-0.3,1.1-0.6,1.6-0.9c2.9-1.8,6.1-2.4,9.6-2.1c1.4,0.1,2.9,0.1,4.3,0.1c9.1,0,18.2,0.1,27.4,0
		c3.8-0.1,7.2,0.5,9.8,3.7c0.7-0.4,1.4-0.6,1.9-1c2.5-1.6,5.2-2.7,8.3-2.6c3.3,0.2,6.7,0.1,10.3,0.2c0,14.9,0,29.6,0,44.7
		c-2.6,1.6-5.6,3-9.3,2.1c-1.4-0.3-3-0.2-4.5-0.3c-1.6-0.1-3.1-0.3-4.6-0.5c-1.2-5.7-6.3-9.9-11.9-9.8c-5.1,0.1-10.2,0.6-15.3,0.9
		c-3.8,0.2-7.7,0.5-11.5,0.5c-1.8,0-2.8,0.6-3.2,2.2c-0.5,1.7-1,3.4-1,5.1c0,19.9,0,39.8,0.1,59.8c0,2.6,0.9,4.9,2.4,6.9
		c0.3,0.5,1.1,1,1.7,1c3,0,6-0.2,9.1-0.4c0.2,0,0.5-0.1,0.7-0.1c4.2-0.2,8.4-0.3,12.7-0.5c2.9-0.1,5.7-0.2,8.6-0.6
		c1.1-0.1,2.3-0.8,3.2-1.5c2.3-1.8,3.6-4.3,3.6-7.2c0.1-7.7,0-15.4,0-23c0-0.2-0.1-0.5-0.2-1c-2.7,3-2.7,6.6-2.8,10.3
		c-0.8,0.1-1.5,0.2-2.2,0.2c-7.4,0-14.9,0.1-22.3-0.1c-1.9,0-3.8-0.9-5.7-1.5c-1-0.3-1-1.1-1-1.9c0.2-4.1,1-8,3.2-11.7
		c-2.5-2.8-4.8-5.8-5-10.1c1.8-1.2,3.9-2.2,6-3c1.2-0.4,2.5-0.7,3.7-0.7c14.4,0,28.8,0,43.2,0c0.6,0,1.3,0.1,2.2,0.1
		c0.1,0.9,0.2,1.7,0.2,2.5c0,22.8,0.1,45.6,0.1,68.4c0,5.4,0,10.9-0.1,16.3c0,0.5-0.1,0.9-0.2,1.7c-0.9,0.1-1.7,0.1-2.6,0.2
		c-2.9,0.1-5.7,0.2-8.6,0.4c-3.7,0.2-7.1-0.7-10.5-2.5c-2.6,2.6-5.9,2.3-9.2,2.3c-9.7,0-19.4-0.1-29,0c-3.3,0.1-6.5,0-9.6-1.2
		c-1.2-0.5-2.4-1.2-3.8-1.9c-2.5,2.9-6,3-9.6,2.7c-1.8-0.1-3.7-0.1-5.5,0c-1.2,0.1-2.2-0.4-3.1-1.1c-1.5-1.2-3-2.4-4.5-3.5
		c-0.7-0.6-1.1-1.2-1.1-2.2c0-8,0-16,0-24c0-1.7,0.6-2.8,2.3-3.4c4.2-1.4,6.1-4.9,7.6-8.7c0.9-2.4,1.2-4.9,1.6-7.4
		c0.7-4.1-0.1-8.1-1-12c-1.2-5-3.5-9.4-7.9-12.6c0.2-0.3,0.3-0.8,0.6-1c4.4-3.1,6.3-7.7,7.6-12.6c0.9-3.3,1.4-6.7,1.1-10.2
		c-0.3-3.4-0.8-6.8-2.4-9.9c-1.3-2.4-3-4.3-5.6-5.3c-1.6-0.6-2.3-1.8-2.4-3.4c-0.2-3.7-0.3-7.5-0.5-11.2c-0.2-3.3-0.6-6.6-0.9-9.9
		C758.8,793.2,759.3,791.4,761.5,790.6c0,0.1,0.1,0.3,0,0.4c-1.5,1.8-1.9,3.8-1,6c0.2,0.5,0.1,1.1,0.1,1.7c0.2,3.6,0.3,7.2,0.5,10.7
		c0.1,2.1,0.3,4.3,0.5,6.4c0,0.5,0.2,1,0.4,1.9c1.2-0.8,2.2-1.4,3.1-2.1c1.2-0.8,1.7-1.8,1.6-3.2c-0.1-2.1-0.2-4.2-0.2-6.2
		c-0.1-5.8-0.3-11.7-0.4-17.5c0-0.5-0.2-1-0.3-1.7C764.3,788.3,762.9,789.5,761.5,790.6z M842.1,858.7c-3.5,1.4-4,2.1-4.1,5.2
		c0,0.6,0,1.1,0,1.7c0,7.2,0,14.4-0.1,21.6c0,4.9-3.2,8.9-7.9,10.1c-1,0.2-2.1,0-3.2,0.1c-3.7,0.3-7.4,0.6-11.1,0.8
		c-4.8,0.2-9.5,0.3-14.3,0.5c-0.6,0-1.2,0.1-2.1,0.2c2.2,2.3,4.4,3.9,7.3,4c7.2,0.1,14.4,0.2,21.6-0.1c3.9-0.1,7.5-1.5,10.6-4
		c2.5-2,3.9-4.6,3.8-7.9c-0.1-9.9-0.1-19.8-0.2-29.7C842.3,860.5,842.2,859.7,842.1,858.7z M762.5,900.6c0.9,0.5,1.7,0.8,2.4,1.3
		c1.6,1,3.1,0.8,4.7-0.1c2.5-1.4,4.2-3.4,5.5-5.8c2.9-5.5,3.5-11.4,3-17.4c-0.4-4.8-1.7-9.5-4.5-13.5c-1.2-1.7-2.8-3.2-4.5-4.6
		c-1.2-1-2.7-1.5-4.4-0.8c0.4,0.7,0.6,1.2,1,1.6c4.5,5.1,5.6,11.5,6.3,17.9c0.2,1.7-0.3,3.5-0.4,5.2
		C770.8,890.9,768.7,896.7,762.5,900.6z M763.1,818.5c0.2,0.2,0.2,0.4,0.4,0.4c3.5,1.5,5.5,4.2,6.7,7.6c1.8,5.1,2.2,10.2,1.3,15.5
		c-0.8,5.2-2.7,10-5.8,14.2c-0.4,0.6-0.9,1.1-1.5,1.8c3.7,1,6.3-0.2,8.3-3.1c0.4-0.5,0.8-1,1.1-1.6c2.6-4,4-8.5,4.4-13.3
		c0.6-6.1-0.1-12-2.9-17.5c-1.1-2.2-2.6-4.1-4.7-5.4c-3.3-2.1-4.3-1.7-6.3,0.3C763.8,818,763.5,818.3,763.1,818.5z M842.4,827.8
		c0.3-2.9-0.9-5-2.8-6.9c-3.1-3-6.9-4.6-11-4.7c-7.4-0.3-14.9-0.2-22.3-0.1c-3.1,0-6.7,2.7-7.9,5.5c0.5,0,1,0.1,1.4,0.1
		c2.4-0.1,4.8-0.3,7.1-0.5c3.7-0.2,7.3-0.3,11-0.5c0.4,0,0.8-0.2,1.2-0.2c3.4-0.1,6.9-1,10.3,0.3c2.2,0.8,4.5,1.7,6.1,3.6
		c1.3,1.5,2.4,3.1,3.8,4.8C840.2,828.7,841.3,828.2,842.4,827.8z M760.7,901c-0.3,1.7-0.6,3.1-0.6,4.5c-0.1,6.9,0,13.9,0,20.8
		c0,0.6,0.1,1.4,0.5,1.7c1.6,1.4,3.4,2.7,5.5,4.2c0.2-9.8,0.5-19.1,0.7-28.4C764.7,902.9,762.9,902,760.7,901z M814.4,860.1
		c-2.3-0.3-4.2-0.5-6.1-0.8c-1.1-0.1-1.7,0.2-2.3,1.3c-1.4,2.7-1.9,5.7-2.3,8.7c-0.2,1.2,0.3,2,1.4,2.5c1.2,0.5,2.5,1,3.9,0.8
		C809.8,868,811.6,863.9,814.4,860.1z M813.9,859c0.1-0.2,0.2-0.4,0.3-0.7c-2.8-3.7-4.8-7.7-5.6-12.5c-1.3,0.6-2.3,1.1-3.3,1.6
		c-1,0.5-2,0.9-3,1.3c-0.1,3.4,1.7,5.7,3.5,8c0.5,0.6,1.1,1.3,1.8,1.5C809.7,858.6,811.8,858.7,813.9,859z M843.2,933.4
		c-1.9-2.3-3.6-4.4-5.2-6.4c-0.8,1.3-1.6,2.6-2.5,4.1C837.8,932.7,840.4,933.1,843.2,933.4z M840.4,829.8c0,0.2,0.1,0.3,0.1,0.5
		c3.2,0.2,6.5,0.5,9.7,0.7c1.5,0.1,2.8-0.7,3.9-1.8c-4-0.2-7.9-0.2-11.9-0.2C841.7,829.1,841.1,829.6,840.4,829.8z M784,930
		c1.8,2.1,4.4,3.1,6.3,2.6c-1.4-1.9-2.9-3.8-4.5-5.8C785.2,927.8,784.6,928.8,784,930z M785.9,792c0.7-1.2,1.3-2.2,2-3.1
		c0.7-1,1.6-1.8,2.7-3.1c-2.8,0.5-4.9,1.2-6.6,2.9C784.7,789.8,785.3,790.8,785.9,792z M838,792.2c1.4-2,2.6-3.7,3.9-5.5
		c-2.6,0.7-3.7,1.4-5.1,3C837.2,790.4,837.6,791.2,838,792.2z"/>
	<path d="M622,741.9c0.7-0.4,1.2-0.7,1.8-1c1.8-0.9,3.6-1.6,5.7-0.7c0.4,0.2,1.1,0.1,1.6-0.1c2.9-0.9,4.1-0.9,6.8,0.3
		c2-1.6,4.2-1.5,6.7-1c1.5,0.3,3.2,0.7,4.9-0.1c2.1-0.9,6.7-0.2,8.9,1.1c2-1.3,4.3-1.2,6.5-0.2c0.5,0.2,1.1,0.3,1.6,0.1
		c2.3-0.9,4.4-0.2,6.4,1c0.3,0.2,0.6,0.3,0.7,0.4c1.6-1.6,2.9-3.3,4.6-4.5c3.1-2.3,6.7-3.2,10.5-3.4c8.5-0.4,16.5,1.8,24,5.7
		c5.7,2.9,11.7,4.6,18.1,5.1c6.3,0.5,10.5-2.7,12.1-8.8c1.3-4.7,0.5-9.3,0.2-13.9c-0.1-1.5-0.6-3.1,0-4.9c1.6,0.7,2.3,2.2,3.1,3.4
		c3.4,4.6,5.1,9.8,5,15.6c-0.1,3.3,0.2,6.5-0.9,9.7c-0.9,2.9-2.5,5.2-4.5,7.4c-4,4.3-9.1,6.5-14.6,7.7c-3.5,0.8-7.3,0.7-10.9,0.6
		c-3.4-0.1-6.8-1.1-10.2-1.4c-3-0.3-6.1-0.5-9.1-0.3c-6.5,0.4-12.4,2.7-18.1,5.7c-3.4,1.8-6.7,3.8-9.4,6.5c-1.1,1.1-2.3,2-3.5,3
		c-3.7,3.1-5.8,7.1-7.2,11.6c-2.2,7.1-2.9,14.3-2.1,21.7c0.6,5.4,1.8,10.5,3.9,15.5c2.7,6.2,6.5,11.6,12.8,14.6
		c0.1,0.1,0.2,0.3,0.2,0.4c-1.8,1.4-3.8,2.6-5.5,4.1c-5.2,4.7-8,10.9-9.8,17.5c-1.6,5.9-2.3,11.9-1.9,18c0.6,8,2.3,15.7,7.2,22.3
		c2.5,3.3,5.5,6,9.7,7.1c1.1,0.3,1.4,0.8,1.4,1.8c0,0.1,0,0.2,0,0.2c0.1,6.9,0.3,13.7,0.5,20.6c0.2,8.3,0.4,16.6,0.6,24.9
		c0,0.6,0,1.1,0,1.9c-0.8,0.2-1.5,0.4-2.3,0.4c-5.3,0.1-10.6,0.2-15.8,0.2c-1.1,0-2.2-0.3-3.2-0.7c-4.5-2.2-7.8-5.5-9.7-10.2
		c-0.1-0.4-0.3-0.7-0.5-1.1c-1.1,1.8-2.1,3.6-3.2,5.3c-1.5,2.2-3.6,3.8-5.9,5.2c-1.7,1-3.4,1.5-5.4,1.5c-4.9-0.1-9.8-0.1-14.6-0.2
		c-0.8,0-1.6-0.2-2.6-0.3c0-2.2,0-4.3,0-6.3c0.2-9.8,0.5-19.7,0.7-29.5c0.1-3.9,0.2-7.8,0.3-11.7c0-0.9,0-1.7,1.2-2
		c5.5-1.3,8.9-5.1,11.7-9.7c2.8-4.6,4.2-9.7,5-14.9c1.2-8.4,0.6-16.7-2-24.9c-1.8-5.8-4.5-11.2-9-15.3c-1.7-1.6-3.8-2.8-5.7-4.3
		c0,0,0.1-0.3,0.2-0.3c5.8-2.7,9.6-7.4,12.1-13.1c6.4-14.4,7-29,0.6-43.7c-1.8-4.1-4.4-7.6-8.4-9.9c-1.7-1-3.3-2.2-4.9-3.4
		c-6-4.2-12.8-6.6-19.8-8.3c-3.2-0.8-6.4-0.6-9.5-0.3c-4.4,0.5-8.9,1.1-13.3,1.6c-7.8,1-15-1-21.4-5.2c-4.2-2.8-7.2-6.7-8.3-11.8
		c-1.6-7.5-0.7-14.6,2.7-21.4c1-2,2.3-3.8,4.5-5.5c0.1,1.2,0.2,1.8,0.2,2.5c-0.1,2.1-0.4,4.3-0.3,6.4c0.2,3.3,0.5,6.5,1.1,9.7
		c0.3,1.7,1,3.4,1.9,4.8c1.5,2.3,3.9,3.3,6.6,3.2c2.6,0,5.3-0.1,7.9-0.6c5-0.9,9.9-2.4,14.5-4.7c4.6-2.3,9.4-4.4,14.6-5.3
		c4.2-0.7,8.3-0.5,12.3,0.6C616.1,735.3,619.9,737.6,622,741.9z M744.4,752.8c2.1-1.8,3.5-3.4,4.4-5.8c1.8-4.7,1.2-9.5,0.9-14.3
		c-0.1-0.9-0.2-2-0.4-2.9c-0.9-3.8-2.4-7-4.9-10c-0.3,1.1-0.4,2.1-0.2,3.1c0.7,3.1,0.4,6.2-0.1,9.3c-0.5,2.9-1.2,5.7-2.7,8.4
		c-1.9,3.3-4.7,5-8.4,5c-2.9,0-5.9-0.3-8.8-0.8c-4.2-0.7-8-2.6-11.9-4.4c-4.6-2.1-9.2-4-14.2-5c-6.3-1.3-12.2-0.6-17.9,2.4
		c-1.9,1-3.5,2.2-4.6,4c-0.4,0.7-0.6,1.2-0.1,2c1,1.5,1.9,3.1,2.9,4.7c0.3,0.5,0.9,1.1,1.4,1.1c3.2,0.3,6.5,0.8,9.7-0.4
		c2.4-0.9,4.8-1.8,7-2.9c1.7-0.8,3.4-0.9,5.1-0.3c1.9,0.8,3.8,1.6,5.7,2.4c5.6,2.3,11.2,4.6,16.9,6.7c3.4,1.3,6.9,1.8,10.5,0.8
		c0.4-0.1,0.8-0.1,1.5-0.2c-0.4,1.7-1.7,2.2-2.8,2.5c-2,0.5-4,1.1-6.1,1.1c-3.8,0-7.6-0.4-11.4-0.7c-3.7-0.3-7.4-0.9-11.2-1.1
		c-1.3-0.1-2.8-0.3-4.1-0.1c-3,0.3-6,0.8-8.9,1.6c-4.8,0.9-9,2.9-12.3,6.7c0.2,0,0.3,0.1,0.4,0.1c4.2-1.8,8.3-3.8,12.5-5.4
		c5.2-2,10.6-2.2,16-1.7c3.7,0.3,7.3,1.4,11.1,1.6c4.7,0.2,9.2,0.2,13.7-1.2C737.4,757.8,741.3,756,744.4,752.8z M552.1,753.1
		c4.9,4.6,11.2,7,17.9,7.3c4.7,0.2,9.5-0.3,14.1-1.1c7.9-1.5,15.6-0.8,23.1,1.9c3.8,1.3,7.5,3.1,10.8,5.5c-0.8-0.9-1.8-1.7-2.7-2.5
		c-3.9-3.6-8.5-5.3-13.5-6c-2.1-0.3-4.3-0.5-6.7-0.7c-1.9-0.1-4.5,0-6.3,0.2c-4,0.4-8.1,0.8-12.1,1.5c-4.4,0.8-8.7,0.4-13-0.7
		c-1-0.2-1.9-0.9-2.7-1.4c-0.3-0.2-1.4-1.3-0.7-1.4c0.6,0,0.9,0.2,1.2,0.2c1.9,0.2,3.8,0.7,5.7,0.5c4.4-0.5,8.5-2,12.6-3.7
		c4.9-2.1,9.8-4.2,14.7-6.4c2.2-1,4.4-0.8,6.5,0.3c1,0.6,2,1.3,3,1.9c3.7,2.1,7.5,2.8,11.7,1.4c1-0.3,1.6-0.9,2.1-1.8
		c0.8-1.5,1.7-2.9,2.7-4.2c0.6-0.8,0.9-1.6,0.2-2.4c-1.1-1.3-2.2-2.8-3.6-3.8c-4.6-3.5-10-4-15.5-3.3c-5.9,0.7-11.3,2.9-16.5,5.5
		c-7.4,3.6-15.1,5.5-23.4,5.2c-2.2-0.1-4-0.9-5.5-2.4c-1.9-1.9-2.6-4.3-3.2-6.8c-1-4.3-1.1-8.7-1-13.1c0-0.8,0-1.5,0-2.3
		c-0.2-0.1-0.3-0.1-0.5-0.2c-0.4,0.6-1,1.2-1.3,1.8c-1,2.5-2.1,5-2.9,7.6c-1.6,5.3-1.3,10.7,0,16.1c0.3,1.1,1.5,3,2.1,4 M642.9,760
		c0.2,0,0.4-0.1,0.5-0.1c0.9,2.8,1.7,5.7,4.9,7.1c0.7-0.5,1.5-0.9,2-1.6c2-2.6,3.4-5.7,3.7-8.8c0.5-4.9-0.3-9.8-2-14.5
		c-0.6-1.5-1.5-2-3.2-1.5c-0.5,0.1-1.1,0.4-1.6,0.4c-1.7,0-2.5,1.1-3.1,2.5c-1.9,4-2.3,8.3-2.2,12.6c0.1,5.2,1.1,10.3,3.1,15
		c3,0.5,4,0.4,5.2-0.4c-3.8,0.5-4.8-0.1-5.9-3.9c-0.5-1.6-0.9-3.2-1.3-4.8C642.8,761.4,642.9,760.7,642.9,760z M657,770.9
		c0,0.2,0.1,0.3,0.1,0.5c0.7,0,1.4,0,2.1,0c5.8,0,4.4,0.5,7.9-3.9c2.2-2.8,3.4-6.3,3.4-9.8c-0.1-4-0.8-8.1-2.3-11.9
		c-1-2.5-2.7-4.1-5.1-5c-1.3-0.4-2.8-0.7-4,0.4c0.6,1.3,1.3,2.5,1.6,3.8c0.5,2.7,0.9,5.5,1,8.3c0.1,3.3-0.1,6.6-0.2,10.1
		c1.4-0.7,2.7-1.4,4-1.9c1.2-0.5,2-2.1,3.9-1.7c-0.6,3.9-2.2,7.2-5.2,9.7c-0.6,0.5-1.4,0.8-2.1,0.9c-1.4,0.2-2.9,0.1-4.3,0.2
		C657.5,770.6,657.3,770.8,657,770.9z M636.8,741.7c-2.3-1.7-4.9-1.4-6.8,0.6c-1.8,1.9-2.5,4.2-3.4,6.5c-2.1,6.1-1.9,12,1.3,17.6
		c1,1.7,2.5,3.2,4.1,4.2c1.9,1.2,4.3,1,6.5,0.5c-1.4-0.3-2.9-0.6-4.4-0.6c-1.2,0-2.1-0.4-3-1.3c-2.5-2.6-3.8-5.8-4.2-9.9
		c2.9,1,4.7,3.4,7.4,3.7c-0.2-3.6-0.6-7.1-0.6-10.6C634,748.7,635.2,745.2,636.8,741.7z M653.4,770.7c0,0.2,0.1,0.3,0.1,0.5
		c0.6-0.1,1.4,0,1.9-0.3c0.8-0.5,1.5-1.2,2.1-1.9c3.4-4.3,3.9-9.3,3.5-14.4c-0.1-1.6-0.3-3.2-0.4-4.7c-0.2-2.9-0.6-5.7-2.6-8
		c-1.5-1.7-3.6-2.3-5.7-1.5c3.3,8.4,3.2,17.1,1.3,26.2c3.4-1.6,4.8-4.4,6.3-7.6C660.7,764,658.2,768.3,653.4,770.7z M642.4,766.4
		c-2.2-8.9-2.3-17.4,1.4-25.5c-2.3-1.2-3.5-1.1-4.9,0.7c-2.6,3.2-3.7,7-4.1,11c-0.4,3.9,0.5,7.8,1.2,11.6c0.6,2.9,2.2,5.3,4.9,6.8
		c0.7,0.4,1.1,0.3,1.6-0.5c-4.9-2.2-6-6.4-6.1-11.1C638,761.9,639.2,764.7,642.4,766.4z M666.7,741.2c5.3,7.6,5.6,15.5,3,24.2
		c5.6-3,7.2-7.8,8.1-13.2c1.4,4.6,0.2,9-1,13.4c2.3-3,2.6-6.5,2.5-10.1c-0.2-3.6-1.6-6.8-3.6-9.8C673.7,742.8,670.9,741,666.7,741.2
		z M629.1,741.2c-2.1-0.4-3.9-0.2-5.5,1c-2,1.5-3.7,3.3-4.8,5.5c-3.1,6.4-2.5,12.6,0.7,18.8c0.3,0.6,0.9,1.2,1.4,1.7
		c0.1-0.1,0.3-0.2,0.4-0.3c-1.6-2.3-2.6-4.8-3-7.6c-0.6-4.2-0.7-6.9,0.5-8.3c0.7,5.2,2.1,9.8,7.3,12.9
		C622.8,756.4,624.4,748.7,629.1,741.2z M648.3,850.9c1.3-4.6,2.6-9,6.5-12.3c-3.9-3.1-5.5-7.2-6.8-12.1c-1.4,5.2-3.1,9.7-7.5,12.7
		C644.6,842.2,646.5,846.4,648.3,850.9z M659.4,837.7c-5-6.4-8.2-13.4-10.3-20.9c-0.3,2.2-0.3,4.3-0.3,6.4c0.1,4.3,1.5,8.3,3.8,11.8
		C654.1,837.2,656.1,838.7,659.4,837.7z M649.7,860.2c1.6-8.1,5.4-14.7,10.1-21c-3.4-0.8-5.4,0.6-7,3c-2.1,3.3-2.9,7-3.5,10.7
		C648.9,855.2,648.2,857.5,649.7,860.2z M647.1,817c-1.5,3.9-2.7,7.7-4.4,11.2c-1.7,3.5-4,6.8-6,10.2c2.1,0.6,3.9-0.1,5.3-1.8
		c0.9-1.1,1.8-2.2,2.5-3.5C647.1,828.1,647.6,822.7,647.1,817z M637.3,840.2c1,1.5,2,2.8,2.8,4.2c3,5,5.4,10.3,6.4,16.1
		c0.1,0.4,0.4,0.8,0.6,1.1c0.6-3.3,0.7-6.5-0.1-9.6c-1-4-2.5-7.9-5.8-10.7C640.2,840.4,639.1,839.8,637.3,840.2z M665.6,770.6
		c0,0.2,0,0.4,0,0.6c4,0.7,6.2,0.4,7.1-0.6C670.5,770.6,668.1,770.6,665.6,770.6z M624.4,770.8c1.8,0.9,3.6,0.7,5.5,0.2
		C628.1,770.2,626.2,770.4,624.4,770.8z"/>
	<path d="M524.8,895.6c4.1,0.2,8.1,0,12.2,0c0.6,1.8,0.8,27.9,0.3,32.1c-1.8,1.2-3.5,2.1-5,3.2c-0.8,0.6-1.6,0.8-2.6,0.8
		c-2.6-0.1-5.1-0.2-7.7,0c-3,0.2-5.2-1.2-7.1-3.3c-0.8-0.9-1.4-1.9-2.2-3c-0.4,0.6-0.8,1.1-1.1,1.6c-0.8,1.1-1.6,2.2-2.5,3.2
		c-1.3,1.5-3,2.3-5.1,2.2c-2.3-0.1-4.7-0.2-7,0.1c-4.2,0.4-7-1.6-9.3-4.8c-0.5-0.7-0.9-1.5-1.5-2.4c-0.5,0.7-0.9,1.3-1.2,1.9
		c-1.1,1.8-2.5,3.3-4.4,4.3c-1,0.5-2.1,0.9-3.2,0.9c-3.3,0.1-6.6-0.1-9.8-0.1c-2,0-3.5-1.1-4.7-2.5c-1.1-1.3-2.1-2.8-3.3-4.4
		c-0.5,0.8-1,1.4-1.5,2.1c-2,2.7-4.5,4.4-8.1,4.2c-2.6-0.2-5.2,0-8.1,0c-0.1-0.9-0.2-1.6-0.2-2.3c0-9.4,0-18.9,0-28.3
		c0-1.6,0.1-1.9,2-2.4c4.1-1.1,8.3-2.1,12.5-3.1c0.3-0.1,0.6-0.1,0.9-0.2c3.1-0.8,3.1-0.8,6.2,0.9c0.8-1.1,2-1.3,3.4-1.2
		c2.2,0.1,4.5-0.1,6.7,0.1c1.5,0.1,2.1-0.6,2.7-1.8c2.5-5.8,3.2-11.9,2.1-18.1c-0.5-2.7-1.3-5.5-2.3-8c-1.5-3.9-4.1-7-7.8-9.1
		c0.1-0.3,0.1-0.5,0.2-0.6c5.5-3.3,8-8.5,9.4-14.5c1.2-5.1,1.4-10.3,0-15.4c-0.6-2.2-1.5-4.4-2.4-6.5c-0.5-1.2-1.4-1.6-2.7-1.6
		c-2.7-0.1-5.4-0.2-8.1-0.6c-1.3-0.2-2.6-1.2-3.8-1.8c-0.3-0.1-0.6-0.3-0.6-0.3c-1.7,0.8-3.2,1.7-4.8,2.3c-0.6,0.3-1.4,0.3-2.1,0.2
		c-3.8-1-7.7-2-11.5-3.1c-0.1,0-0.2-0.2-0.4-0.3c0.6-5.2,0.2-10.5,0.3-15.7c0.1-5.3,0-10.5,0-16.1c1.1-0.1,1.9-0.1,2.8-0.2
		c2.9-0.1,5.7-0.1,8.6-0.3c2.2-0.1,4,0.7,5.9,1.8c0.8,0.5,1.6,1.1,2.6,1.7c0.5-0.5,1-0.9,1.4-1.4c1.5-1.8,3.3-2.6,5.7-2.5
		c2.9,0.1,5.8,0,8.6-0.1c3.6-0.2,6.8,0.7,9.6,3c0.4,0.3,0.8,0.6,1.3,0.9c0.6-0.5,1.2-1.1,1.7-1.6c1.8-1.6,3.8-2.5,6.3-2.4
		c3.9,0.2,7.8,0,11.7,0.1c2,0,3.6,1.1,5.2,2.2c0.6,0.4,1.1,1,1.5,1.4c0.2,0,0.5,0,0.5-0.1c2.4-2.4,5.2-3.1,8.5-2.8
		c2,0.2,4,0.1,6-0.1c1.2-0.1,1.9,0.2,2.8,1c4.1,3.8,4.1,3.8,4.1,9.4c0,6.9,0,13.8,0,20.6c0,0.9,0,1.7,0,2.6c-1.4,1-2.8,1.4-4.4,1.4
		c-3.7,0-7.4,0-11,0c-0.6,0-1.1-0.1-1.7-0.2c-1-0.2-2-0.5-3-0.5c-1-0.1-2,0.1-3.2,0.2c-0.5-2.2-2.1-2.6-4.1-2.4
		c-1.5,0.1-3,0.1-4.6,0c-2.8-0.1-4.9,1.1-6.4,3.4c-1.9,2.9-3,6-3.7,9.3c-1.5,7.8-0.4,15.3,3.4,22.3c0.5,0.8,1,1.6,1.6,2.4
		c2.6,3.4,3.3,3.6,7.9,3.2c-0.4-0.4-0.7-0.6-1-0.9c-1.2-1.3-2.5-2.5-3.4-4c-2.5-4.2-4.2-8.7-4.9-13.6c-0.6-4-0.3-7.8,0.6-11.6
		c0.5-2.3,1.6-4.4,3.1-6.2c1.6-1.9,3.5-3.2,6.2-2.8c1.3,0.2,2.6,0.2,3.9,0.2c3-0.1,1.3,0.4,1.3,0.6c-1.4,0-4.1,0.2-5.5,0.1
		c-2.4-0.2-4.1,1.1-5.4,2.8c-1.9,2.5-2.7,5.5-3.2,8.6c-1,5.8,0.2,11.2,2.4,16.5c1.9,4.7,4.5,8.8,9.8,10.8c-0.5,0.6-0.9,1.1-1.4,1.5
		c-5.8,4-8.8,9.8-10.1,16.5c-0.9,4.7-0.6,9.5,1.9,13.9c2.3,4.1,5.6,6.7,10.6,6.4c0.8,0,8.8-0.4,8.8,0.5 M508.9,858.1
		c-3-0.8-5.3,0.1-7.2,1.9c-1.4,1.4-2.8,2.9-3.8,4.6c-3.5,6.1-4.7,12.7-3.9,19.6c0.5,4.3,1.6,8.5,4.1,12.1c1.6,2.3,3.6,3.5,6.4,3.4
		c1.7-0.1,3.4,0,5,0c2.1-0.1,2.7-0.6,3.1-3c-1.3-0.1-2.7-0.1-4-0.4c-3.5-0.9-6-3.2-7.7-6.3c-3.2-5.8-3.1-11.9-1.4-18.1
		C501.1,866.5,504.1,861.9,508.9,858.1z M530.7,930.8c2.2-1.5,3.9-2.6,5.6-3.7c0.4-4.6,0.2-27.3-0.3-29.2c-1.2,0.8-2.3,1.8-3.6,2.4
		c-1.6,0.9-1.8,2.1-1.8,3.8c0.1,7.9,0,15.8,0,23.7C530.7,928.6,530.7,929.4,530.7,930.8z M531.2,785.4c-0.2,0.1-0.4,0.1-0.6,0.2
		c0,0.9,0,1.7,0,2.6c0,7.9,0,15.8,0,23.7c0,2.6,0.9,3.9,3.2,4.9c0.8,0.3,1.2,0,1.4-0.7c0.1-0.4,0.1-0.8,0.1-1.2c0-8,0-16,0-24
		c0-0.7-0.2-1.5-0.6-1.9C533.7,787.7,532.4,786.6,531.2,785.4z M514.1,896.9c-1.7,2-2,4.9-1.1,8.1c0.3-0.5,0.6-0.9,0.8-1.3
		c1.5-2.6,3.7-4,6.9-3.8c2.6,0.1,5.3-0.2,7.9,0.1c2.9,0.3,4.6-1.4,6.4-3.1c-3.4-0.2-6.7-0.1-10-0.2c-3.3-0.1-5.5,1.1-7.9,3.3
		c-0.4,0.4-3.6,4.2-4.1,5.1c-0.2-1,4.2-6.1,5.6-8.3C519.3,895.8,514.8,896.6,514.1,896.9z M462,897.4c-0.7-1.3-1.5-1.8-2.8-1.5
		c-2.7,0.7-5.4,1.3-8,2c-1.9,0.5-3.7,0.9-5.6,1.4c0.4,0.5,0.7,0.6,1.1,0.6c1.7,0,3.4,0.1,5,0c3-0.1,5,1.2,6.5,3.6
		c0.3,0.4,0.6,0.9,1.2,1.7C459.9,902.2,458.8,899,462,897.4z M533.1,818c-0.9-1.5-2.1-1.9-3.4-1.9c-3,0-6.1,0-9.1,0
		c-2.9,0-5.1-1.1-6.6-3.6c-0.3-0.5-0.7-1-1.3-1.8c-0.1,0.9-0.1,1.3-0.2,1.8c-0.4,2.3,0.6,3.7,2.7,4.3c2.1,0.6,4.3,1.2,6.5,1.3
		c3,0.2,6.1,0.1,9.1,0C531.5,818.2,532.2,818,533.1,818z M474.1,896.2c-2.3,0-4.5,0.2-6.6,0c-2.8-0.3-4.4,1.2-6.2,3.6
		c3.3-0.1,6.2,0.4,9.1-0.3C472,899,473.3,898.1,474.1,896.2z M446.8,816c0,0.2-0.1,0.3-0.1,0.5c1.9,0.5,3.7,1.1,5.6,1.6
		c0.7,0.2,1.5,0.6,2.1,0.4c3.5-0.8,6.5-2.9,4.8-7.7c-0.2,0.3-0.4,0.5-0.6,0.8c-1.7,3.2-4.3,4.6-7.9,4.3
		C449.4,816,448.1,816,446.8,816z M473.3,818.5c-2.5-2.5-8.3-3.2-11.5-1.8c1.1,1.1,2.3,1.6,3.8,1.6c1.7,0,3.5,0.3,5.2,0.4
		C471.5,818.7,472.2,818.6,473.3,818.5z M508.3,784.5c1.6,2.1,3,4,4.6,6c0.5-1,0.8-1.7,1.2-2.4C512.5,786.3,510.9,784.9,508.3,784.5
		z M487.5,788.3c-1.5-1.2-2.6-2.6-4.8-3c1.3,1.9,2.4,3.4,3.6,5.1C486.7,789.7,487,789.1,487.5,788.3z M456.2,785.4
		c-0.1,0.2-0.1,0.3-0.2,0.5c1.2,1.5,2.3,2.9,3.5,4.4c1.3-1.6,1.4-1.9,0.1-2.9C458.6,786.6,457.4,786,456.2,785.4z"/>
	<path d="M753.9,915.1c-5.6,0-11.1,1.3-16.5-1.7c-2,2.1-4.7,2-7.3,2c-8.3,0-16.6,0.1-24.9,0c-2.5,0-5.1-0.5-7.2-2.6
		c-2.1,2.5-4.9,2.4-7.7,2.2c-0.5,0-1-0.1-1.4,0c-2.8,0.5-4.8-0.4-6.3-2.9c-0.5-0.8-0.9-1.4-0.9-2.4c0.1-2.3,0.1-4.6,0.1-6.9
		c0.1-4.3,0.2-8.6,0.3-12.9c0-1,0.5-1.6,1.2-2.2c4.4-3.7,6.2-8.7,5.8-14.3c-0.5-5.5-2.5-10.5-6.2-14.7c-0.2-0.2-0.3-0.4-0.2-0.3
		c1.3-2.7,2.7-5.2,3.7-7.9c1.4-3.8,1.7-7.8,1.4-11.9c-0.2-2.1-0.2-4.1-1-6.1c-0.9-2.3-1.9-4.4-4.8-4.6c-0.4,0-1-0.7-1.2-1.2
		c-0.2-0.6-0.1-1.3-0.1-1.9c0-5.8,0-11.7-0.1-17.5c0-1.1,0.6-1.8,1.1-2.5c1.6-2.6,3.5-4.7,7-3.8c0.5,0.1,1.1,0,1.7,0
		c5.4-0.2,3.8-0.4,8,2.2c1-0.6,2.1-1.1,3.1-1.7c1.6-0.8,3.3-0.8,5.1-0.7c5,0.2,9.9,0.1,14.9,0.1c3.7,0,7.4,0,11,0
		c2.1,0,2.1,0,5.6,2.1c4.8-3.3,10.3-1.8,15.8-2c0.1,0.9,0.2,1.5,0.2,2.1c0,9.8,0.1,19.5,0.1,29.3c0,0.2,0,0.3,0,0.5
		c-0.1,2.9-0.9,3.7-3.8,3.6c-2.9-0.1-5.8,0-8.6-0.1c-0.8,0-1.6-0.1-2.5-0.1c-0.1-4.2-2.9-5.6-6.3-6.5c-3.8-1.1-7.6-1.7-11.5-1.8
		c-4.2-0.1-8.3,0-12.5,0c-0.8,0-1.6,0-2.6,0c-0.1,0.7-0.3,1.3-0.3,1.9c-0.1,3.7,0,7.4-0.1,11c-0.2,9,7.1,12.9,13,12.9
		c2.8,0,5.6,0,8.4,0c0.8,0,1.5,0.1,2.4,0.2c-0.1,2.2-1.8,2.9-3.2,4c1.3,1.1,3,1.9,3.2,4c-0.7,0.1-1.4,0.2-2,0.3c-3,0-6.1,0-9.1,0
		c-4.3,0.1-7.9,1.7-10.6,5.2c-1.3,1.7-2,3.7-2.1,5.8c-0.1,4.4,0,8.8,0.1,13.2c0,0.2,0.2,0.4,0.4,1c0.8,0,1.8,0,2.7,0
		c7.3,0,14.6,0,21.8,0c3.9,0,6.4-1.8,7.6-5.5c0.3-1,0.5-2,0.9-3.3c4.9,0.1,9.9-1.2,14.4,2.3C753.9,892.3,753.9,903.6,753.9,915.1z
		 M683.8,857.7c0.9,0,1.5,0.1,2,0c2.2-0.5,3.6-2,4.7-3.8c4.3-7,4.7-14.4,2-22.1c-0.7-2-1.8-3.7-3.4-5.1c-2.4-2.1-3.5-2-5.6,0
		c1.1,1.5,2.5,2.8,3.3,4.3c2.6,5,2.3,10.4,1.4,15.8C687.6,850.6,686.3,854.1,683.8,857.7z M684,888.7c0.3,0.3,0.5,0.7,0.7,1
		c1.5,1.6,2,1.7,3.8,0.3c1.7-1.2,2.8-2.8,3.7-4.7c2.3-5.1,2.5-10.4,1.4-15.7c-0.8-3.7-2.3-7.1-5.1-9.8c-1.2-1.1-2.4-1.4-3.9-0.6
		C691,869.2,692.9,879,684,888.7z M706.2,891.2c0.7,0.1,1,0.2,1.3,0.2c8,0,16,0.1,24,0c2.2,0,4.4-0.8,6.5-1.5
		c2.1-0.8,3.9-2.3,4.9-4.4c1.2-2.6,0.5-3.9-2.6-4.5c-0.3,0.8-0.6,1.7-1.1,2.6c-1.6,3.2-3.8,5.3-7.8,5.2c-7.5-0.2-15-0.1-22.5,0
		c-0.8,0-1.7,0.1-2.7,0.1C706.1,889.7,706.1,890.4,706.2,891.2z M740,834.2c0.4,0.1,0.4,0.1,0.5,0.1c0.2,0,0.5-0.1,0.7-0.1
		c2.1-0.5,2.4-0.9,1.7-2.9c-0.7-1.8-2-3.1-3.6-4.1c-2.8-1.8-5.9-2.4-9.2-2.4c-7.2,0-14.4,0-21.6,0c-0.4,0-0.8,0-1.2,0
		c-1.4,0.1-1.5,0.8-1,2.2c0.9,0,1.7,0,2.6,0c5.9,0.1,11.8-0.5,17.7,0.5c2.7,0.4,5.3,0.9,7.9,1.8C736.9,830.1,739.2,831.4,740,834.2z
		 M681.5,826.5c0.8-0.6,1.2-0.9,1.7-1.2c1.8-0.9,2.5-2.3,2.3-4.4c-0.3-5.2-0.4-10.5-0.6-15.8c0-0.6-0.2-1.2-0.3-2.1
		c-1.7,1.3-3.1,2.5-3.1,4.5C681.5,813.8,681.5,819.9,681.5,826.5z M684.5,912.6c0.1-0.3,0.3-0.4,0.3-0.6c0.2-6.3,0.4-12.6,0.6-18.9
		c0-1.6-0.9-2.4-2.2-3c-0.2,0.3-0.3,0.4-0.3,0.6c-0.2,6.1-0.3,12.1-0.4,18.2C682.6,910.2,682.8,911.7,684.5,912.6z M742.2,880.3
		c2.8,1.8,5.8,0.9,8.7,1C749.1,879.7,746,879.3,742.2,880.3z M698.8,911.9c1.1,1.6,2.4,2.3,4.2,1.9c-1-1.4-1.9-2.6-3-4.1
		C699.6,910.5,699.2,911.1,698.8,911.9z M742.9,913.8c-1-1.3-1.9-2.5-2.9-3.9c-0.6,1-1,1.8-1.6,2.7
		C739.9,913.3,741.1,914.2,742.9,913.8z M742.2,835.3c3.1,0.2,6.2,0.3,9.3-0.1C748.3,834.9,745.2,834.6,742.2,835.3z M699.9,806.5
		c1.2-1.6,2.2-2.9,3.2-4.3c-1.8-0.1-3,0.9-4.2,2C699.2,804.9,699.5,805.5,699.9,806.5z M742.9,802.4c-1.8,0.2-3.1,0.7-4.3,1.8
		c0.5,0.8,0.9,1.4,1.4,2.2C741.1,805,741.9,803.8,742.9,802.4z"/>
	<path d="M543.5,801.5c5.2-1,9-0.5,13.7,2c0.4-0.4,0.9-0.8,1.3-1.2c0.9-0.9,2-1.3,3.3-1.2c0.2,0,0.3,0,0.5,0c6.3,0.1,6.2,0.1,11,4
		c0.9,0.7,1,1.5,1,2.5c0,4.8,0,9.6,0,14.4c0,1.6,0.4,2.9,1.2,4.3c2.1,3.6,3.9,7.3,5.8,11c3.2,6.1,6.4,12.1,9.6,18.1
		c0.1,0.3,0.3,0.5,0.6,0.9c1.8-1.5,2.6-3.5,3.2-5.5c1.9-6,2.2-12.1,0.4-18.2c-0.9-3.1-2.1-5.9-5.2-7.4c-1-0.5-0.8-1.3-0.8-2.1
		c-0.1-5.6-0.2-11.2-0.3-16.8c0-1.6,0-3.2,0-5c4.8-0.3,9.4-1.2,13,2.9c3.5-3.1,3.5-3.1,8.2-3.1c0.2,0,0.5,0,0.7,0
		c4,0,6.3,2.3,6.3,6.3c0,6,0,12,0,18c0,0.8,0,1.6,0,2.5c-2.7,0.5-3.4,2.8-4.5,4.6c-1.5,2.6-2,5.7-1.9,8.5c0.2,5.6,1.8,10.8,5.8,15
		c0.7,0.7,1.4,1.5,2.1,2.2c-6.3,5.6-8.1,12.7-7.5,20.5c0.3,3.4,1.4,6.7,4,9.3c0.5,0.6,0.9,1.5,0.9,2.3c0,3.1-0.2,6.2-0.3,9.3
		c-0.1,3.1-0.1,6.2-0.1,9.4c0,3.7-1.9,5.8-5.6,6c-0.4,0-0.8,0-1.2,0.1c-2.2,0.3-4.2,0-5.6-1.8c-2.4,0.6-4.7,1.5-7,1.7
		c-2.3,0.3-4.7,0-7.4,0c0-1.3,0-2.3,0-3.3c0.1-5.7,0.2-11.4,0.4-17c0-1.6-0.3-3.1-1-4.6c-4.7-9.9-9.3-19.8-13.9-29.7
		c-0.3-0.7-0.7-1.4-1.2-2.1c-3.7,2.1-5.4,5.3-6.2,8.9c-1.5,6.8-0.2,13.3,3.3,19.3c0.1,0.2,0.2,0.5,0.3,0.6c2.3,1.9,2.4,4.5,2.3,7.2
		c-0.1,3.9,0,7.8,0,11.8c0,1.7,0.2,3.5,0.3,4.9c-1.5,1.1-2.9,2-4.1,3.1c-0.9,0.8-1.8,1.2-3,1.2c-1.1,0-2.3-0.1-3.4,0.1
		c-2.7,0.4-4.4-1-5.7-3.1c-0.4-0.6-0.8-1.3-1.3-2c-0.9,1.3-1.7,2.5-2.6,3.6c-0.9,1.1-2.1,1.6-3.6,1.5c-1.9-0.1-3.8,0-5.9,0
		c-0.1-1.1-0.1-1.9-0.1-2.6c0.1-6.4,0.3-12.8,0.4-19.2c0-1.1,0.1-2,1.3-2.5c1.9-1,3.1-2.8,3.9-4.7c2.9-7.4,2.6-14.9-0.3-22.2
		c-0.9-2.1-2.6-4-3.9-6c6.1-6,6.6-13.8,5.8-21.8c-0.2-1.9-0.8-3.7-1.4-5.5c-0.8-2.2-2-4.2-4.2-5.3c-0.9-0.4-1.1-1.1-1.1-1.9
		c-0.1-6.7-0.3-13.4-0.5-20.1C543.3,802.6,543.4,802,543.5,801.5z M589.7,858.3c0.8-0.8,0.7-1.5,0.2-2.4
		c-3.9-7.4-7.8-14.8-11.7-22.2c-1.3-2.5-2.6-5.1-4.1-7.6c-0.7-1.1-0.9-2.1-0.9-3.3c0-4.4-0.1-8.8,0.1-13.2c0.1-2.4-0.7-4-2.6-5.1
		c-0.9-0.5-1.7-1.1-2.8-1.8c-0.1,4.6-0.1,8.8-0.3,12.9c-0.3,6.6-0.2,6.6,2.5,12.4c7.6,16.3,15.1,32.6,22.7,48.9
		c0.8,1.7,1.6,3.4,2.7,5.5c0.3-0.9,0.5-1.2,0.5-1.6c0.6-3.8,0.6-7.6-0.2-11.4C594.7,865.1,593.5,861.2,589.7,858.3z M570.3,858.4
		c-2.6-0.2-4.8,0.2-6.1,2.5c-0.7,1.2-1.5,2.5-2,3.8c-2.4,6.3-2.5,12.8-0.8,19.3c0.6,2.2,1.6,4.4,3.4,6c0.5,0.4,1.3,1,1.8,0.9
		c1.3-0.3,2.6-1,4-1.5c-0.4-0.8-0.7-1.3-1-1.7c-3.1-4.7-4.6-9.9-4.5-15.5c0.1-4.8,1.2-9.1,4.5-12.7
		C569.9,859.1,570.1,858.9,570.3,858.4z M616.6,858.1c-8.2-9.8-9.7-19.9-2.2-30.5c-0.7-0.9-1.4-1.7-2.3-2.9
		c-1.2,1.2-2.3,2.1-3.1,3.1c-1.6,2-2.2,4.4-2.7,6.9c-1.4,6.8-0.6,13.3,2.5,19.6C610.4,857.6,613.2,858.2,616.6,858.1z M616.1,858.9
		c-0.5-0.1-0.9-0.1-1.3-0.2c-2.2-0.8-3.7,0.1-5,1.8c-0.3,0.4-0.7,0.9-0.9,1.4c-3.4,6.3-4.1,13-2.7,20c0.6,2.7,1.4,5.3,3.2,7.4
		c1.6,1.9,2.3,1.9,4,0.1c0.2-0.2,0.3-0.5,0.3-0.5C607.6,878.3,609,868.5,616.1,858.9z M570.8,857.1c-0.1-0.4-0.1-0.8-0.3-1
		c-2-2.5-2.7-5.3-2.8-8.4c0-0.7-0.2-1.4-0.5-2.1c-1.6-3.5-3.3-7.1-5-10.6c-0.2-0.4-0.5-0.7-1-1.3c-0.2,0.7-0.3,1-0.4,1.4
		c-0.9,4.7-0.6,9.4,0.5,14c0.7,2.7,1.7,5.3,3.7,7.4c0.5,0.5,1.3,1.2,1.9,1.2C568.2,857.7,569.4,857.3,570.8,857.1z M571.9,910.2
		c-0.3-6.9,0.1-13.4-0.3-20.1c-0.9,0.3-1.4,0.5-1.9,0.7c-2.4,1-2.5,1-2.4,3.6c0.1,5.7,0.3,11.3,0.4,17c0,0.5,0.2,1,0.3,1.8
		C569.5,912.1,570.7,911.1,571.9,910.2z M613.5,802.7c-0.2,0.6-0.3,0.8-0.3,1c-0.1,6.4-0.3,12.8-0.4,19.2c0,2.1,1.5,2.9,3.1,4
		c0-6.7-0.1-13.1,0-19.5C616,805.4,615,804.1,613.5,802.7z M612.1,913.3c1.6-1,2.6-1.9,2.4-3.7c-0.1-1.2-0.1-2.4,0-3.6
		c0.1-3.7,0.3-7.3,0.4-11c0-1.6,0.4-3.3-0.3-4.9c-2.7,1.9-2.7,1.9-2.7,4.9c0,5.4,0,10.7,0,16.1C611.9,911.7,612,912.4,612.1,913.3z
		 M599.2,913c0.1,0.1,0.2,0.2,0.3,0.3c0.9-0.4,1.7-0.7,2.7-1.1c-0.5-0.8-0.8-1.3-1.2-2.2C600.2,911.2,599.7,912.1,599.2,913z
		 M555.7,806.7c0.3-1,0.7-1.6,0.5-2.1c-0.4-1-1.2-1.6-2.5-1.6C554.3,804.2,554.8,805.2,555.7,806.7z M569.8,851.3
		c-0.2,0.1-0.3,0.2-0.5,0.3c0.3,1.4,0.9,2.7,2.3,3.5C571,853.8,570.4,852.5,569.8,851.3z M600.8,806c0.2-0.1,0.4-0.2,0.6-0.3
		c-0.3-0.4-0.7-0.8-1-1.3c-0.1,0.1-0.2,0.2-0.3,0.3C600.2,805.1,600.5,805.5,600.8,806z"/>
	<path d="M607.1,1115.3c6.3-4.2,8.6-10.2,8.8-17c0.3-13.5,0.3-27,0.2-40.6c0-4.3-2.6-7.4-6-9.9c-0.6-0.4-1.2-0.7-2-1.2
		c0.4-0.3,0.7-0.6,1-0.7c3.6-1.7,5.3-5,6.8-8.4c0.3-0.6,0.2-1.4,0.2-2.1c0-13.5,0-27-0.2-40.6c-0.1-5.1-1.6-9.9-5.1-13.9
		c-1-1.1-2.2-2-3.3-3c1.7-0.5,77.1-0.6,79.7-0.1c-4.3,4-5.5,9.4-6.7,14.8c-0.7,3.3-0.9,6.8-1.3,10.2c-0.1,0.5-0.1,0.9-0.2,1.6
		c-1.5,0.1-2.6-0.7-3.7-1.5c-3-2.3-5.3-5.1-6.8-8.5c-0.7-1.5-1.6-1.9-3.2-1.9c-6.2,0.1-12.3,0-18.5,0.2c-6,0.2-10.6,3-13.4,8.3
		c-1,1.8-1.5,4.1-1.6,6.2c-0.3,8.8-0.2,17.6-0.7,26.4c-0.3,5.4,6.4,10,11.7,7.9c2.2-0.9,3.1-2.6,3.2-4.9c0.1-1.7,0.2-3.4,0.7-4.9
		c1-3.2,3.4-5.2,6.7-5.8c1.3-0.2,2.6,0.2,4.1,0.4c0,13.6,0,26.9,0,40.2c-3.5,1.6-7.3,0.7-9.5-2.5c-1.2-1.7-2-3.6-1.9-5.8
		c0-0.4,0-0.8,0-1.2c-0.1-3.7-2.4-6-6.1-5.8c-2.8,0.2-5.3,1.2-7.1,3.5c-1,1.3-1.6,2.7-1.6,4.4c0.2,7,0.3,13.9,0.5,20.9
		c0,1.8,0,3.7,0,5.5c0.1,8.2,6.7,14.9,14.9,15.1c6.2,0.1,12.3,0,18.5,0.2c1.6,0,2.6-0.4,3.3-2c1.5-3.2,3.7-6,6.5-8.2
		c1.1-0.8,2.3-1.4,3.6-2.1c0.9,1.7,0.7,3.3,0.8,4.9c0.5,6.1,1.7,12,4.4,17.5c0.8,1.6,2,3,3,4.4
		C685.5,1115.7,610.5,1115.9,607.1,1115.3z M627.1,1046.6c-1-1.8-2.1-3.6-3.2-5.3c-1.1,1.8-2.2,3.6-3.3,5.3c1.1,1.8,2.2,3.6,3.3,5.4
		C625,1050.2,626,1048.4,627.1,1046.6z"/>
	<path d="M577.1,1006.1c0,13.5,0,26.8,0,40.1c-3.7,1.7-7.7,0.5-9.8-3c-1-1.6-1.7-3.3-1.6-5.2c0-0.2-0.1-0.5,0-0.7
		c0.3-6.1-4.7-7-8.6-5.9c-4,1.1-6.2,4.1-6.2,8.3c0,5.2,0,10.4,0.1,15.6c0.1,4.1,0.1,8.3,0.5,12.4c0.5,6.9,2.1,13.5,5.4,19.7
		c1.4,2.7,3.1,5.2,5.7,7c0.2,0.2,0.4,0.4,0.8,0.9c-12.1,0-23.9,0-36,0c0.4-0.6,0.6-1.1,1-1.4c3.9-3.1,5.6-7.4,6.6-12.1
		c0.4-1.8,0.5-3.6,0.5-5.5c0.1-13,0.1-25.9,0.1-38.9c0-1-0.2-2.1-0.6-3c-1.4-3.2-3.2-6.1-6.6-7.6c-0.2-0.1-0.3-0.3-0.8-0.7
		c0.3-0.1,0.5-0.2,0.7-0.3c3.4-1.5,5.2-4.4,6.7-7.5c0.4-0.9,0.6-2,0.6-3c0-13.5,0.1-27-0.2-40.5c-0.1-5.7-1.8-11-6.2-15.1
		c-0.8-0.7-1.6-1.3-2.4-1.9c0-0.1,0-0.2,0.1-0.3c0-0.1,0.1-0.2,0.1-0.2c26.2,0,52.5-0.1,78.7-0.1c0.3,0,0.6,0.1,1.1,0.2
		c-5.1,5.2-6.2,11.7-7.4,18.2c-0.5,2.8-0.7,5.7-1.1,8.7c-2.8-0.5-4.7-2.2-6.3-4.2c-1.6-2-3-4.1-4.3-6.3c-0.6-1.1-1.3-1.6-2.6-1.6
		c-6.7,0.2-13.4,0.2-20.1,0.4c-6.1,0.2-12.2,5.5-13.3,11.5c-0.3,1.4-0.4,2.8-0.5,4.3c-0.2,8.2-0.4,16.5-0.5,24.7
		c-0.1,4.3,2.5,7.4,6.7,8.4c1.3,0.3,2.6,0.5,4,0.1c2.8-0.9,4.1-2.3,4.1-5.1c0-2.2,0.2-4.3,1.3-6.3c1.4-2.7,3.8-4.1,6.7-4.5
		C574.7,1005.4,575.9,1005.9,577.1,1006.1z M543.4,1020.9c-1.1,1.9-2.3,3.7-3.3,5.4c1.1,1.8,2.2,3.6,3.3,5.4
		c1.1-1.8,2.1-3.6,3.1-5.3C545.5,1024.6,544.5,1022.8,543.4,1020.9z"/>
	<path d="M691,958.6c2-0.6,21.3-0.8,29.1-0.4c0.5,0,1,0.2,2,0.4c-0.7,0.6-1,1.1-1.4,1.2c-3.1,0.5-4.1,2.9-4.8,5.4
		c-1.3,4.9-1.8,9.9-1.5,15c0.5,9.4,2,18.7,4.8,27.7c1.9,6,4.1,11.7,7.5,17c0.2,0.3,0.4,0.7,0.6,1.1c-1.8,2.1-2.1,4.7-2.2,7.4
		c-0.2,5.6,0.5,11,2.7,16.2c0.6,1.5,1.3,3.1,3.1,4.2c0.7-0.9,1.4-1.6,1.9-2.4c2-3.6,2.9-7.6,3.3-11.6c0.3-2.4,0-4.9,0.1-7.4
		c0-2.3-0.6-4.4-2-6.2c0.1-0.4,0.1-0.6,0.3-0.8c5.3-8.1,8.2-17.1,10.2-26.4c1.7-7.7,2.7-15.5,2.5-23.5c-0.1-3.7-0.6-7.4-1.7-11
		c-0.7-2.2-1.9-4-4.4-4.6c-0.5-0.1-0.8-0.6-1.5-1.1c0.7-0.3,1.1-0.6,1.5-0.6c9.5,0,19,0,28.6,0c0.2,0,0.4,0.1,1,0.3
		c-0.3,0.6-0.5,1.3-0.9,1.5c-2.1,1.3-3.1,3.4-4.1,5.5c-2.7,5.6-4.5,11.6-5.9,17.7c-1.7,7.6-3.3,15.3-4.4,23
		c-0.8,5.4-0.9,11-1.1,16.5c-0.1,1.8,0.3,3.6,0.7,5.4c0.2,0.9,0,1.4-0.5,2.2c-1.5,2.1-3,4.2-4.1,6.5c-4.2,8.9-6.8,18.4-8.1,28.1
		c-0.4,3.2-0.7,6.5-0.9,9.8c-0.3,4.2,0.2,8.5,1.2,12.6c0.8,3.2,2,6.2,4.5,8.6c-1.8,0.5-29.6,0.6-32.2,0.1c2.2-2.4,3.5-5.1,4.3-8.2
		c1.3-5.5,1.7-11,1-16.6c-0.3-2.3-0.3-4.6-0.7-6.9c-0.8-4.4-1.5-8.8-2.7-13c-1.2-4.4-2.8-8.6-4.5-12.9c-1.3-3.3-3-6.4-5.7-9.1
		c1.2-3.7,1.1-7.6,0.9-11.5c-0.3-4.6-0.7-9.2-1.4-13.8c-1-6.4-2.1-12.7-3.5-19c-1.4-6.5-3.3-13-6.1-19.1c-1.1-2.3-2.1-4.7-4.4-6.1
		C691.4,959.8,691.3,959.1,691,958.6z M718.8,1024.4c-1.1-1.8-2.4-3.7-3.7-5.7c-0.5,1.9-1,3.7-1.5,5.4c-0.1,0.5-0.3,1.2,0,1.6
		c1.2,1.8,2.5,3.5,3.8,5.3C717.9,1028.8,718.4,1026.6,718.8,1024.4z M742.6,1024.5c0.5,2.2,1,4.2,1.5,6.4c1.3-1.8,2.5-3.3,3.6-5
		c0.3-0.4,0.3-1,0.2-1.5c-0.5-1.9-1-3.7-1.6-5.6C745,1020.7,743.8,1022.6,742.6,1024.5z"/>
	<path d="M485.3,657.3c0-8.1,6.5-14.6,14.7-14.5c8,0,14.5,6.5,14.5,14.5c0,7.2-5.2,14.4-14.6,14.7
		C491.9,672.2,485.3,665.4,485.3,657.3z"/>
	<path d="M539.6,653c-9.8-0.1-18.2-8-18-18.6c0.3-11.6,10-18.3,19-17.9c9.9,0.4,17.9,8.9,17.6,18.8C558,645.2,549.6,653.2,539.6,653
		z M540,621.4c-6.4-0.5-13.5,5-13.6,13.3c-0.1,6.6,5.3,13.4,13.3,13.5c7.7,0.1,13.5-6.3,13.6-13.5C553.4,627.3,546.9,621,540,621.4z
		"/>
	<path d="M487,1184.8c-12.3,0.4-24-9.8-24.1-23.7c-0.1-14.1,11.5-24.2,23.9-24.2c13.1,0,24.1,10.4,24.1,24
		C510.9,1175.7,498.8,1185.2,487,1184.8z M464.4,1160.8c-0.4,10.7,8.2,22.7,22.6,22.7c14.3,0,22.7-12,22.6-22.6
		c0-12.1-9.6-22.8-22.7-22.7C472.3,1138.3,464,1150.3,464.4,1160.8z"/>
	<path d="M466.7,691c-5.3,0-9.4-4.1-9.4-9.4c0-5.3,4.3-9.6,9.6-9.5c5.2,0.1,9.5,4.3,9.5,9.5C476.3,687.1,471.5,691.3,466.7,691z
		 M466.9,673.1c-5,0-8.8,3.6-8.8,8.5c0,4.7,3.8,8.6,8.5,8.6c4.9,0,8.6-3.7,8.7-8.6C475.5,676.7,470.8,672.5,466.9,673.1z"/>
	<path d="M439,1156c-1.4-0.1-1.5-0.8-1.5-1.6c0-0.7,0.3-1.3,1-1.4c0.7-0.1,1.6,0.8,1.4,1.5C439.8,1155.1,439.2,1155.6,439,1156z"/>
	<path d="M429.4,1121.3c-0.7,0.6-1.1,1.2-1.6,1.3c-0.9,0.1-1.2-0.6-1.2-1.4c-0.1-0.7,0.3-1.4,1-1.2
		C428.2,1120,428.7,1120.7,429.4,1121.3z"/>
	<path d="M428.2,1116c-0.8,0.6-1.2,1.1-1.7,1.2c-0.7,0.1-1.2-0.5-1.1-1.2c0.1-0.5,0.7-1.1,1.1-1.2
		C427,1114.8,427.4,1115.4,428.2,1116z"/>
	<path d="M345.8,856.5c-0.7,0.6-1.2,1.3-1.5,1.3c-0.5-0.1-1.1-0.8-1.1-1.2c0-0.4,0.6-1.1,1-1.2C344.5,855.2,345,855.9,345.8,856.5z"
		/>
	<path d="M425.5,1113.3c-0.5-1.1-0.9-1.6-0.8-2.1c0-0.4,0.6-1,1-1.1c0.8-0.2,1.2,0.5,1.1,1.2
		C426.6,1111.9,426.1,1112.3,425.5,1113.3z"/>
	<path d="M347.7,853.5c-0.7-0.7-1.4-1.1-1.4-1.6c0-0.4,0.6-1.1,1-1.2c0.4-0.1,1.1,0.5,1.2,0.9C348.7,852.1,348.2,852.6,347.7,853.5z
		"/>
	<path d="M450.2,1170.7c-0.9,0.6-1.4,1.3-1.7,1.2c-0.5-0.1-0.9-0.7-1.1-1.2c-0.1-0.2,0.6-0.9,1-1
		C448.8,1169.7,449.2,1170.2,450.2,1170.7z"/>
	<path d="M415.8,1079.1c0.5,0.8,1,1.3,1.2,1.9c0.1,0.2-0.7,0.9-0.8,0.8c-0.5-0.3-1.1-0.7-1.4-1.2
		C414.6,1080.4,415.2,1079.8,415.8,1079.1z"/>
	<path d="M341.1,818.5c0.6-0.6,0.9-1.2,1.3-1.3c0.8-0.2,1.2,0.4,1.1,1.1c-0.1,0.4-0.5,1.2-0.8,1.2
		C342.3,819.4,341.9,819,341.1,818.5z"/>
	<path d="M322.7,864.8c-0.8,0.5-1.2,1.1-1.7,1.1c-0.3,0-0.8-0.6-1.1-0.9c0.4-0.4,0.7-1,1.2-1.1C321.4,863.8,321.9,864.3,322.7,864.8
		z"/>
	<path d="M445.1,1163.5c0.5,0.9,0.9,1.4,0.9,1.9c0,0.3-0.7,0.6-1.1,0.9c-0.3-0.4-0.8-0.8-0.9-1.2
		C444.1,1164.7,444.6,1164.3,445.1,1163.5z"/>
	<path d="M421,1089.4c0.5,0.8,1,1.3,1,1.8c0,0.3-0.6,0.7-1,1.1c-0.4-0.4-0.9-0.8-1.1-1.3C419.9,1090.7,420.5,1090.2,421,1089.4z"/>
	<path d="M432.1,1133.2c-0.8,0.5-1.3,1.1-1.6,1c-0.5-0.2-0.9-0.8-1.1-1.3c-0.1-0.2,0.7-0.9,1-0.9
		C430.9,1132.1,431.3,1132.7,432.1,1133.2z"/>
	<path d="M435.2,1150.1c-0.6-0.7-1.1-1.1-1.1-1.5c0-0.5,0.5-1,0.8-1.5c0.4,0.4,1.1,0.7,1.2,1.1
		C436.2,1148.7,435.7,1149.2,435.2,1150.1z"/>
	<path d="M433.1,1137.8c-0.9,0.5-1.4,0.9-1.8,0.9c-0.7,0-1.2-0.6-1-1.3c0.1-0.3,0.7-0.8,1-0.7
		C431.9,1136.7,432.3,1137.2,433.1,1137.8z"/>
	<path d="M406.5,1068.7c-0.8,0.5-1.3,1-1.8,1c-0.2,0-0.9-0.8-0.8-1.1c0.1-0.4,0.6-0.9,1.1-1C405.4,1067.6,405.8,1068.2,406.5,1068.7
		z"/>
	<path d="M426.3,1106.6c-0.7,0.5-1.1,1-1.6,1.1c-0.2,0-0.9-0.7-0.8-1.1c0-0.4,0.6-1,1-1C425.2,1105.5,425.6,1106.1,426.3,1106.6z"/>
	<path d="M430.2,1127.5c-0.7,0.4-1.1,0.8-1.7,0.9c-0.2,0-0.8-0.8-0.7-1c0.3-0.5,0.8-0.8,1.3-1.1
		C429.2,1126.3,429.7,1126.9,430.2,1127.5z"/>
	<path d="M352.3,841.4c-0.6,0.5-1,1-1.4,1c-0.4,0-1-0.7-0.9-1c0-0.4,0.6-1,1-1.1C351.3,840.3,351.7,840.9,352.3,841.4z"/>
	<path d="M424.1,1096c-0.6,0.5-1.1,1.1-1.2,1.1c-0.5-0.3-0.9-0.7-1.1-1.2c-0.1-0.1,0.6-0.9,0.8-0.9
		C423,1095.1,423.4,1095.5,424.1,1096z"/>
	<path d="M452.9,1175.1c-0.6,0.6-0.9,1.2-1.3,1.2c-0.4,0-1-0.4-1.1-0.8c-0.2-0.7,0.2-1.3,0.9-1.3
		C451.9,1174.1,452.3,1174.6,452.9,1175.1z"/>
	<path d="M351,846.7c-0.7,0.5-1.1,1-1.4,0.9c-0.4-0.1-0.7-0.6-1.1-1c0.3-0.3,0.7-0.9,1-0.9C350,845.7,350.4,846.2,351,846.7z"/>
	<path d="M409.1,1070.8c0.5,0.7,0.9,1.1,1.1,1.6c0.1,0.2-0.5,0.6-0.8,0.9c-0.4-0.4-0.9-0.7-1.2-1.2
		C408.1,1072,408.6,1071.5,409.1,1070.8z"/>
	<path d="M425.2,1101.9c-0.7,0.4-1.3,0.9-1.4,0.8c-0.4-0.3-0.8-0.8-1-1.4c0-0.1,0.8-0.8,1-0.8
		C424.3,1100.8,424.7,1101.3,425.2,1101.9z"/>
	<path d="M434.5,1143c-0.7,0.5-1.2,1-1.6,0.9c-0.3,0-0.7-0.7-0.8-1.1c0-0.2,0.6-0.9,0.9-0.8C433.4,1142.1,433.8,1142.5,434.5,1143z"
		/>
	<path d="M330.6,863.6c0.5,0.6,1,0.9,1,1.2c-0.1,0.4-0.5,0.8-0.8,1.1c-0.3-0.3-0.9-0.5-0.9-0.8C329.9,864.7,330.3,864.2,330.6,863.6
		z"/>
	<path d="M419.9,1086.3c-0.4,0.2-0.8,0.6-1.1,0.6c-0.3,0-0.6-0.5-0.9-0.8c0.4-0.3,0.7-0.8,1.1-0.9c0.4-0.1,0.8,0.3,1.3,0.5
		C420.2,1085.9,420,1086.1,419.9,1086.3z"/>
	<path d="M339.5,861.4c-0.4-0.6-1-1-0.9-1.2c0.1-0.4,0.6-0.8,1-1c0.2-0.1,0.8,0.6,0.8,0.8C340.3,860.4,339.9,860.8,339.5,861.4z"/>
	<path d="M352.2,836.1c-0.6,0.4-1,0.8-1.4,0.9c-0.3,0-0.9-0.7-0.8-0.8c0.2-0.4,0.6-0.9,1-1C351.3,835.1,351.7,835.7,352.2,836.1z"/>
	<path d="M413.9,1075.9c-0.5,0.4-0.9,1-1.1,0.9c-0.4-0.1-0.7-0.6-1.1-1c0.3-0.3,0.7-0.8,1-0.8
		C413.1,1075.1,413.4,1075.5,413.9,1075.9z"/>
	<path d="M335,864.6c-0.4-0.6-0.8-1-0.8-1.5c0-0.3,0.7-0.9,0.9-0.8c0.4,0.2,0.8,0.6,1,1.1C336.1,863.6,335.5,864,335,864.6z"/>
	<path d="M349.3,825.9c-0.6,0.5-0.9,1.1-1.2,1c-0.4-0.1-0.8-0.5-1-0.9c-0.1-0.2,0.5-0.9,0.7-0.9
		C348.3,825.2,348.7,825.6,349.3,825.9z"/>
	<path d="M402.1,1065.5c-0.6,0.4-1,0.9-1.4,0.9c-0.4,0-0.7-0.6-1.1-0.9c0.4-0.3,0.8-0.7,1.2-0.8
		C401.1,1064.6,401.5,1065.1,402.1,1065.5z"/>
	<path d="M398.6,1063c-0.8,0.5-1.2,0.9-1.6,0.9c-0.3,0-0.8-0.5-0.8-0.9c0-0.3,0.5-0.9,0.8-0.9C397.3,1062.2,397.8,1062.6,398.6,1063
		z"/>
	<path d="M327.3,866.1c-0.5,0.4-0.8,0.8-1.1,0.8c-0.3,0-0.7-0.5-1-0.7c0.3-0.3,0.6-0.8,1-1C326.4,865.1,326.8,865.6,327.3,866.1z"/>
	<path d="M442.9,1159.5c-0.8,0.4-1.3,0.8-1.7,0.8c-0.3,0-0.9-0.7-0.8-0.8c0.2-0.4,0.6-0.9,1-1
		C441.8,1158.4,442.2,1158.9,442.9,1159.5z"/>
	<path d="M351.3,830.5c-0.5,0.4-1,0.9-1.2,0.8c-0.4-0.2-0.6-0.7-0.9-1.1c0.4-0.2,0.7-0.7,1.1-0.7
		C350.6,829.6,350.9,830.1,351.3,830.5z"/>
	<path d="M346.6,822.1c-0.4,0.3-0.8,0.8-1,0.7c-0.3-0.2-0.6-0.6-0.8-0.9c0.3-0.2,0.6-0.6,0.8-0.6
		C345.9,821.3,346.1,821.7,346.6,822.1z"/>
	<path d="M797.6,642.8c8.1,0,14.6,6.5,14.5,14.7c0,8-6.5,14.6-14.5,14.5c-9.2-0.2-14.6-7.2-14.7-14.6
		C782.9,649.3,789.5,642.8,797.6,642.8z"/>
	<path d="M757.6,653c-10,0.1-18.3-8-18.4-18c-0.1-10.1,8.1-18.4,18.1-18.6c8.5-0.2,18.3,6.4,18.5,18.1
		C775.9,645.3,767.3,652.9,757.6,653z M757.7,621.4c-7.2-0.5-13.5,5.9-13.6,13.1c-0.1,7.4,5.8,13.8,13.5,13.8
		c8-0.1,13.3-6.7,13.4-13.2C771.1,626.4,763.7,621,757.7,621.4z"/>
	<path d="M810.5,1184.8c-12,0.4-24-9.3-24-24c0-13.6,11-23.8,24-23.9c12.4-0.1,24.1,10.1,24,24.1
		C834.4,1175,822.8,1185.2,810.5,1184.8z M833.1,1160.8c0.3-10.7-8.2-22.6-22.8-22.6c-13.2,0-22.5,10.7-22.5,22.7
		c-0.1,10.6,8.2,22.6,22.6,22.6C824.8,1183.6,833.5,1171.6,833.1,1160.8z"/>
	<path d="M830.5,691c-5.3,0-9.5-4.2-9.5-9.4c0-5.3,4.4-9.5,9.7-9.5c5.2,0,9.4,4.3,9.4,9.5C840.2,686.9,836,691,830.5,691z
		 M830.7,673.1c-4.6-0.5-8.8,4.1-8.7,8.5c0.2,4.7,3.8,8.5,8.5,8.5c4.8,0,8.7-3.8,8.7-8.6C839.3,676.7,835.5,673.1,830.7,673.1z"/>
	<path d="M860.4,1154.3c-0.7,0.7-1,1.4-1.6,1.5c-0.8,0.2-1.3-0.4-1.4-1.2c-0.1-0.8,0.8-1.8,1.4-1.5
		C859.4,1153.2,859.8,1153.8,860.4,1154.3z"/>
	<path d="M869.9,1119.2c0.5,1,0.9,1.5,0.9,2c0,0.7-0.4,1.5-1.2,1.3c-0.4-0.1-1-0.9-1-1.3C868.6,1120.7,869.2,1120.2,869.9,1119.2z"
		/>
	<path d="M872.6,1116.2c-0.8,0.5-1.4,1-1.8,0.9c-0.4-0.1-1-0.9-1-1.3c0-0.4,0.8-1,1.2-1C871.4,1114.8,871.8,1115.5,872.6,1116.2z"/>
	<path d="M953,858.4c-0.4-1-0.7-1.6-0.8-2.1c0-0.7,0.4-1.4,1.2-1.1c0.4,0.2,1,0.9,0.9,1.4C954.3,857.1,953.7,857.5,953,858.4z"/>
	<path d="M951.7,852.1c-1,0.4-1.5,0.8-2,0.8c-0.8,0-1.2-0.7-0.9-1.3c0.2-0.4,0.9-0.9,1.3-0.9C950.6,850.8,951,851.4,951.7,852.1z"/>
	<path d="M873.3,1111.4c-0.6,0.6-1,1.1-1.4,1.1c-0.9,0.1-1.3-0.6-1.1-1.4c0.1-0.4,0.7-1,1-1C872.3,1110.3,872.7,1110.9,873.3,1111.4
		z"/>
	<path d="M876.3,1092.7c-0.5-0.8-1-1.3-0.9-1.6c0.1-0.5,0.7-1.1,1.1-1.2c0.7-0.2,1.2,0.5,1,1.2
		C877.4,1091.6,876.9,1092,876.3,1092.7z"/>
	<path d="M849,1169.2c0.6,0.7,1.1,1,1.2,1.4c0.2,0.6-0.6,1.5-1.3,1.3c-0.4-0.1-0.9-0.7-0.9-1.1C848,1170.4,848.5,1169.9,849,1169.2z
		"/>
	<path d="M883.3,1080.6c-0.9,0.6-1.4,1-1.9,1.2c-0.2,0.1-1-0.8-0.9-1c0.3-0.5,0.7-1,1.2-1.1C882.1,1079.6,882.5,1080.1,883.3,1080.6
		z"/>
	<path d="M956.3,818.6c-0.7,0.4-1.2,0.9-1.7,0.9c-0.2,0-0.7-0.7-0.8-1.2c-0.1-0.7,0.4-1.3,1.2-1.1
		C955.4,817.3,955.7,817.9,956.3,818.6z"/>
	<path d="M853.8,1165.4c-0.7,0.4-1.1,0.9-1.5,0.9c-0.4-0.1-0.7-0.7-1-1c0.4-0.4,0.8-0.9,1.3-1.1
		C852.8,1164.1,853.2,1164.8,853.8,1165.4z"/>
	<path d="M868.6,1132.9c-0.7,0.6-1.1,1.2-1.6,1.3c-0.3,0.1-1.1-0.7-1-0.9c0.2-0.5,0.6-1.1,1.1-1.3
		C867.3,1131.9,867.8,1132.5,868.6,1132.9z"/>
	<path d="M862.2,1150.1c-0.5-0.9-1-1.4-0.9-1.9c0.1-0.4,0.8-0.7,1.2-1.1c0.3,0.5,0.7,1,0.8,1.5
		C863.3,1148.9,862.8,1149.3,862.2,1150.1z"/>
	<path d="M976.5,863.3c0.5,0.7,1,1.2,1,1.7c0,0.3-0.8,1-1,0.9c-0.5-0.2-1-0.7-1.1-1.2C975.2,864.5,975.9,864,976.5,863.3z"/>
	<path d="M872.5,1108.3c-0.4-0.9-0.9-1.4-0.9-1.9c0-0.3,0.7-0.6,1.1-0.9c0.3,0.4,0.8,0.8,0.8,1.2
		C873.6,1107.1,873.1,1107.5,872.5,1108.3z"/>
	<path d="M894.1,1068.8c-0.8,0.5-1.3,1-1.6,0.9c-0.4-0.1-1-0.7-1-1.1c0-0.3,0.7-1.1,0.9-1C892.9,1067.7,893.3,1068.3,894.1,1068.8z"
		/>
	<path d="M866,1136c0.6,0.8,1.1,1.2,1.1,1.5c-0.1,0.4-0.6,1-1,1c-0.4,0-1.1-0.6-1.1-0.8C865,1137.3,865.5,1136.8,866,1136z"/>
	<path d="M875,1101.7c-0.7,0.5-1.1,1-1.5,1c-0.3,0-0.9-0.7-0.8-1.1c0-0.4,0.6-1,1-1C874,1100.6,874.4,1101.2,875,1101.7z"/>
	<path d="M876.1,1096.1c-0.7,0.4-1.1,0.8-1.7,0.9c-0.2,0-0.7-0.6-0.7-1c0-0.7,0.4-1.2,1.2-1C875.3,1095,875.6,1095.5,876.1,1096.1z"
		/>
	<path d="M870,1127.5c-0.7,0.4-1.2,0.9-1.3,0.8c-0.4-0.3-0.8-0.8-1-1.3c0-0.1,0.7-0.8,0.9-0.8C869,1126.5,869.4,1127,870,1127.5z"/>
	<path d="M888.3,1070.8c0.5,0.7,1,1.2,0.9,1.3c-0.2,0.5-0.7,0.8-1.1,1.2c-0.3-0.3-0.9-0.7-0.8-0.9
		C887.4,1071.9,887.9,1071.5,888.3,1070.8z"/>
	<path d="M946.6,842.9c-0.5-0.7-1.1-1.1-1-1.5c0-0.4,0.6-0.8,0.9-1.2c0.4,0.4,0.9,0.7,1,1.1C947.5,841.7,947.1,842.2,946.6,842.9z"
		/>
	<path d="M948.2,844.8c0.3,0.8,0.7,1.3,0.6,1.6c-0.1,0.5-0.7,0.9-1,1.3c-0.3-0.3-0.9-0.7-1-1C946.9,846.3,947.4,845.9,948.2,844.8z"
		/>
	<path d="M845.8,1173.6c0.5,0.7,1.1,1,1.1,1.4c0,0.4-0.4,1.1-0.7,1.2c-0.7,0.2-1.3-0.2-1.2-1C845,1174.8,845.4,1174.4,845.8,1173.6z
		"/>
	<path d="M966.5,863.6c0.5,0.5,1.1,0.9,1,1.1c-0.1,0.4-0.5,0.8-0.8,1.1c-0.3-0.3-0.9-0.5-0.9-0.8
		C965.8,864.7,966.2,864.3,966.5,863.6z"/>
	<path d="M864.5,1144.5c-0.6-0.8-1.1-1.2-1.1-1.6c0-0.4,0.6-0.8,1-1c0.1-0.1,0.8,0.5,0.8,0.9
		C865.3,1143.3,864.9,1143.7,864.5,1144.5z"/>
	<path d="M879.8,1085.9c-0.5,0.4-0.8,0.9-1.1,1c-0.3,0-0.7-0.4-1.1-0.6c0.3-0.4,0.5-0.9,0.9-1.1
		C878.8,1085,879.3,1085.6,879.8,1085.9z"/>
	<path d="M958.2,858.8c0.3,0.6,0.7,1.1,0.7,1.5c0,0.3-0.8,0.8-0.9,0.7c-0.4-0.2-0.8-0.7-0.8-1.1
		C957.1,859.6,957.6,859.3,958.2,858.8z"/>
	<path d="M946.5,834.8c0.4,0.6,0.8,1,0.8,1.4c0,0.3-0.7,0.9-0.8,0.8c-0.4-0.2-0.9-0.6-1-1C945.5,835.8,946.1,835.4,946.5,834.8z"/>
	<path d="M884.8,1074.7c0.4,0.5,0.9,1,0.8,1.2c-0.2,0.4-0.7,0.6-1.1,0.9c-0.2-0.4-0.7-0.7-0.7-1.1
		C883.9,1075.5,884.4,1075.2,884.8,1074.7z"/>
	<path d="M962.4,861.9c0.4,0.6,1,1,0.9,1.3c-0.1,0.4-0.6,0.8-1,1c-0.2,0.1-0.9-0.6-0.8-0.9C961.5,862.9,962,862.5,962.4,861.9z"/>
	<path d="M950.7,826c-0.6,0.5-0.9,0.9-1.3,1c-0.3,0-0.6-0.5-0.9-0.8c0.3-0.4,0.6-0.8,1-1C949.7,825.1,950.1,825.6,950.7,826z"/>
	<path d="M898.3,1065.6c-0.8,0.4-1.3,0.9-1.6,0.8c-0.4-0.1-0.6-0.7-0.9-1.1c0.3-0.2,0.7-0.7,1-0.7
		C897.2,1064.7,897.6,1065.1,898.3,1065.6z"/>
	<path d="M901.7,1063.2c-0.7,0.4-1.1,0.8-1.5,0.8c-0.3,0-0.6-0.6-0.8-0.9c0.4-0.3,0.7-0.8,1.1-0.8
		C900.8,1062.2,901.1,1062.7,901.7,1063.2z"/>
	<path d="M856.1,1157.9c0.4,0.7,0.9,1.2,0.9,1.6c-0.1,0.3-0.7,0.7-1.2,0.8c-0.2,0-0.8-0.6-0.8-0.9
		C855.2,1158.9,855.6,1158.6,856.1,1157.9z"/>
	<path d="M971.3,864.8c0.4,0.5,0.9,0.8,0.9,1.1c0,0.3-0.5,0.7-0.7,1c-0.4-0.3-0.9-0.6-1-1C970.4,865.8,970.9,865.3,971.3,864.8z"/>
	<path d="M947.4,829.3c0.3,0.5,0.8,1,0.8,1.2c-0.2,0.4-0.7,0.6-1.1,0.9c-0.2-0.4-0.7-0.7-0.7-1.1C946.5,830,947,829.7,947.4,829.3z"
		/>
	<path d="M952.9,822.1c-0.4,0.3-0.8,0.8-1,0.7c-0.3-0.2-0.6-0.6-0.9-0.9c0.3-0.2,0.6-0.6,0.9-0.6
		C952.3,821.3,952.5,821.7,952.9,822.1z"/>
	<path d="M765.9,1169.1c0,1.2,0,2.2,0,3.2c0,15.2,0,30.4,0,45.6c0,0.6-0.1,1.1,0,1.7c0.1,1.3-0.5,1.8-1.7,2.1
		c-12,2.6-19.1,10.3-22.3,21.9c-0.6,2.3-0.7,2.4-3.1,2.4c-4.1,0.1-8.2,0.1-12.2,0.1c-24.7,0-49.4,0-74.1,0
		c-30.2,0-60.5-0.1-90.7-0.1c-0.3,0-0.6,0-1,0c-2.3-0.1-2.4-0.2-2.9-2.3c-1.5-6.5-5-11.9-10.1-16.2c-3.4-2.9-7.3-4.9-11.7-5.7
		c-2.2-0.4-2.2-0.5-2.3-2.8c0-1.1-0.1-2.2-0.1-3.4c0-13.7,0-27.3,0-41c0-1.8,0.1-3.6,0.2-5.5c0.8-0.2,1.4-0.4,2-0.5
		c11.3-2.6,18.1-9.9,21.6-20.6c1.2-3.7,0.1-3.7,4.7-3.7c21.8,0,43.5,0,65.3,0c33.2,0,66.4,0,99.6,0c3.9,0,7.8,0,11.8,0.1
		c2.4,0,2.5,0.1,3.1,2.4c1.8,7.5,6,13.3,12.2,17.8c3.1,2.2,6.6,3.6,10.3,4.2C764.7,1168.8,765.1,1168.9,765.9,1169.1z M757.7,1213.2
		c0.1-0.5,0.1-0.9,0.1-1.3c0-11.7,0-23.4,0.1-35c0-1.4-0.6-1.9-1.8-2.4c-9-3.6-15.5-10.1-19.8-18.6c-0.9-1.8-1.9-2.3-3.8-2.3
		c-52.5-0.1-104.9-0.3-157.4-0.5c-3.4,0-6.7,0-10.1,0c-0.3,0.4-0.5,0.7-0.7,1.1c-3.2,6.6-7.8,12-13.5,16.6c-2,1.6-4.1,3-6.4,4.1
		c-1.7,0.8-2.1,1.7-2.1,3.5c0,11.4,0,22.9-0.1,34.3c0,0.9,0.1,1.7,0.1,2.7c5.6,1.3,10.2,4.1,14.1,8c4,3.9,7,8.5,7.7,14.4
		c56.8-0.5,113.5-0.9,170-1.4C738.2,1224.5,746.6,1217.6,757.7,1213.2z"/>
	<path d="M684.5,611.9c-0.1,5.2-1.1,9-2.9,12.5c-6.2,12.2-16.2,19.4-29.6,21.9c-5,0.9-9.5-0.4-14-2c-10.5-3.8-18-11-22.7-21.1
		c-2.7-5.8-2.7-11.7-1.3-17.8c2.2-9.3,6.6-17.1,14.4-22.8c4.8-3.5,10.1-5.6,16.1-6.3c21.4-2.5,35.5,12.6,38.9,28.6
		C683.9,607.5,684.3,610.3,684.5,611.9z M683.1,613.2c-0.6-9.8-3.7-18.6-10.5-25.8c-5.5-5.8-12.2-9.2-20.2-9.9
		c-11.1-1-20.7,2.3-28.2,10.7c-6.2,6.9-9.1,15.1-9.7,24.2c-0.1,1.5,0,3.1,0.3,4.5c2.3,10.6,9,17.8,17.9,23.2c3,1.8,6.4,2.8,9.7,3.9
		c3.8,1.2,7.7,1.4,11.6,0.3c4.9-1.4,9.7-3.1,13.9-6.2c4.3-3.2,8-6.9,10.9-11.4C681.3,622.6,682.9,618.2,683.1,613.2z"/>
	<path d="M963.2,956.2c-0.6,0.6-0.9,1.2-1.3,1.2c-0.9,0.1-1.3-0.6-1.2-1.4c0.1-0.4,0.7-1,1-1C962.2,955.2,962.6,955.7,963.2,956.2z"
		/>
	<path d="M965.9,938.6c-0.7,0.5-1.1,1.1-1.5,1.2c-0.3,0-1.1-0.7-1-0.9c0.1-0.5,0.6-1.1,1.1-1.3C964.6,937.5,965.2,938.1,965.9,938.6
		z"/>
	<path d="M964.1,941.9c0.5,0.7,1,1.2,1,1.7c0,0.3-0.5,1.1-0.8,1.1c-0.9,0.1-1.2-0.7-1.2-1.4C963.2,942.9,963.6,942.5,964.1,941.9z"
		/>
	<path d="M960.2,964.3c-0.8,0.6-1.2,1.1-1.6,1.1c-0.4,0-0.9-0.5-1.1-0.9c-0.1-0.2,0.5-1,0.7-1C958.7,963.5,959.2,963.9,960.2,964.3z
		"/>
	<path d="M963.3,946.4c0.6,0.6,1.1,0.8,1.2,1.2c0.3,0.7-0.4,1.6-1.1,1.5c-0.3-0.1-0.9-0.6-0.9-0.8
		C962.6,947.7,963,947.2,963.3,946.4z"/>
	<path d="M962.7,950.8c0.5,0.6,1,0.9,1,1.1c-0.1,0.4-0.5,0.8-0.8,1.1c-0.3-0.3-0.9-0.5-0.9-0.8C961.9,951.9,962.3,951.5,962.7,950.8
		z"/>
	<path d="M961.9,960c-1.1,0.6-1.4,1-1.8,1c-0.3,0-0.6-0.5-0.9-0.8c0.4-0.3,0.7-0.8,1.1-0.9C960.7,959.3,961.2,959.7,961.9,960z"/>
	<path d="M965.7,935.4c-0.5,0.3-0.9,0.6-1.1,0.5c-0.3-0.1-0.4-0.5-0.6-0.8c0.3-0.2,0.6-0.6,0.8-0.5C965,934.6,965.2,935,965.7,935.4
		z"/>
	<path d="M334.2,956.4c0.6-0.6,0.9-1.2,1.4-1.4c0.2-0.1,0.9,0.5,1.1,0.9c0.2,0.8-0.2,1.4-1,1.5C335.3,957.5,334.9,956.9,334.2,956.4
		z"/>
	<path d="M334.6,939c-0.8,0.4-1.4,0.9-1.6,0.8c-0.4-0.2-0.8-0.8-0.9-1.3c0-0.3,0.8-0.9,1.1-0.8C333.6,937.8,333.9,938.3,334.6,939z"
		/>
	<path d="M333.6,941.7c0.4,0.9,0.8,1.5,0.7,1.8c-0.2,0.5-0.8,0.8-1.2,1.2c-0.3-0.4-0.8-0.9-0.7-1.2
		C332.4,943,332.9,942.6,333.6,941.7z"/>
	<path d="M339,963.1c0.5,0.6,1.1,1,1,1.3c-0.1,0.4-0.7,1-1,1c-0.4,0-1.1-0.6-1.1-0.9C337.9,964.1,338.5,963.7,339,963.1z"/>
	<path d="M335.4,948c-0.7,0.6-1.3,1.2-1.4,1.1c-0.5-0.3-0.9-0.8-1.1-1.3c-0.1-0.2,0.6-0.9,0.8-0.9C334.2,947,334.6,947.5,335.4,948z
		"/>
	<path d="M334.6,953.5c-0.4-0.6-0.8-1-0.8-1.4c0-0.3,0.7-0.9,0.8-0.8c0.4,0.2,0.9,0.6,1,1C335.6,952.5,335.1,952.9,334.6,953.5z"/>
	<path d="M337.5,961.4c-0.5-0.4-0.8-0.7-1.1-1c0.3-0.4,0.6-0.7,1-1.1c0.3,0.3,0.8,0.5,0.9,0.9C338.2,960.4,337.8,960.8,337.5,961.4z
		"/>
	<path d="M332.8,936.2c-0.3-0.4-0.7-0.7-0.7-1c0-0.3,0.5-0.6,0.7-0.7c0.2,0,0.7,0.4,0.7,0.7C333.5,935.5,333.1,935.8,332.8,936.2z"
		/>
	<path d="M954.2,996.6c-0.5-1.1-0.8-1.6-0.9-2.1c-0.1-0.6,0.1-1.3,0.9-1.4c1,0,1.2,0.7,1.1,1.4C955.2,995.1,954.8,995.5,954.2,996.6
		z"/>
	<path d="M952,1006.8c-0.6-1-1.1-1.4-1.1-1.9c0-0.5,0.6-0.9,0.9-1.4c0.4,0.4,1,0.8,1.1,1.2C952.9,1005.2,952.5,1005.8,952,1006.8z"
		/>
	<path d="M953.4,1001.5c-0.6-0.9-1.2-1.3-1.1-1.6c0.1-0.5,0.6-1,1.1-1.3c0.1-0.1,1,0.5,0.9,0.7
		C954.2,999.9,953.8,1000.4,953.4,1001.5z"/>
	<path d="M951.8,1009.6c-0.6,0.5-1,0.8-1.3,1.2c-0.3-0.4-0.9-0.9-1-1.3c0-0.3,0.7-0.9,1.1-0.9
		C950.9,1008.5,951.3,1009.1,951.8,1009.6z"/>
	<path d="M950.1,1014.3c-0.7,0.5-1.1,1.1-1.5,1.1c-0.3,0-0.9-0.7-0.9-1c0-0.4,0.6-1,1-1C949.1,1013.2,949.5,1013.8,950.1,1014.3z"/>
	<path d="M955.9,989.7c-0.7,0.4-1.2,0.9-1.5,0.8c-0.4-0.1-0.9-0.8-0.8-1.1c0-0.3,0.7-0.9,1.1-0.9C955,988.6,955.3,989.1,955.9,989.7
		z"/>
	<path d="M954.2,979.3c0.3,0.7,0.7,1.1,0.7,1.5c0,0.3-0.6,0.5-1,0.8c-0.3-0.4-0.7-0.8-0.8-1.2C953,980.2,953.6,979.8,954.2,979.3z"
		/>
	<path d="M955.6,985.2c-0.6,0.4-0.9,0.8-1.2,0.7c-0.3,0-0.8-0.6-0.8-0.9c0.1-0.3,0.6-0.8,0.9-0.8
		C954.8,984.2,955.1,984.7,955.6,985.2z"/>
	<path d="M344.6,994.5c-0.6,0.6-1,1.3-1.4,1.3c-0.9,0-1.1-0.7-1-1.5c0.1-0.7,0.3-1.4,1.1-1.1C343.7,993.3,344,993.9,344.6,994.5z"/>
	<path d="M347.1,1004.8c-0.7,0.6-1.1,1-1.5,1.3c-0.4-0.4-1-0.8-1-1.3c0-0.4,0.6-0.9,0.9-1.4C346,1003.9,346.4,1004.3,347.1,1004.8z"
		/>
	<path d="M345.7,999.9c-0.7,0.5-1.3,1-1.5,0.9c-0.5-0.3-0.9-0.8-1-1.3c-0.1-0.2,0.8-1,1-0.9C344.6,998.7,345,999.2,345.7,999.9z"/>
	<path d="M348.3,1009.5c-0.5,0.5-0.8,1.1-1.2,1.2c-0.8,0.2-1.2-0.5-1.1-1.1c0-0.4,0.6-1,0.9-1.1
		C347.3,1008.5,347.7,1009.1,348.3,1009.5z"/>
	<path d="M348.7,1012.7c0.5,0.7,1,1.2,1,1.6c0,0.4-0.6,0.8-0.9,1.1c-0.4-0.4-0.9-0.7-1-1.1C347.7,1014,348.2,1013.5,348.7,1012.7z"
		/>
	<path d="M344.4,989.4c-0.6,0.6-1,1.2-1.4,1.1c-0.4,0-1-0.6-1-0.9c0-0.4,0.5-1,0.9-1.1C343.2,988.4,343.7,989,344.4,989.4z"/>
	<path d="M343.4,979.3c0.5,0.6,1,1,1,1.2c-0.1,0.4-0.6,0.7-0.9,1.1c-0.3-0.3-0.9-0.6-0.9-0.9C342.6,980.3,343.1,979.9,343.4,979.3z"
		/>
	<path d="M344.2,985c-0.5,0.4-0.8,0.9-1.1,0.9c-0.3,0-0.9-0.5-0.9-0.8c0-0.3,0.4-0.9,0.8-0.9C343.3,984.2,343.7,984.6,344.2,985z"/>
	<path d="M642.6,514.1c4.2,5.9,8.5,5.9,12,0c0.9,1.5,0.7,2.9,0.1,4.3c-0.9,2-2.5,3.6-4.5,4.4c-0.8,0.3-1.8,0.4-2.5,0.2
		C644.9,522,641.2,518.4,642.6,514.1z"/>
	<path d="M589.3,680.1c0.1,1.8-0.1,3.5,0.3,5c0.5,1.7,2.7,2.8,4.2,2.3c1.5-0.5,2.9-1.5,4.4-2.2c0.5,1.8,0.1,3.1-1.5,4.1
		c-2.1,1.3-4.3,1.7-6.6,0.5c-2.3-1.2-3.3-3.2-3.5-5.6C586.5,682.4,587.2,680.9,589.3,680.1z"/>
	<path d="M707.9,680.1c2.8,1.2,3.6,3.1,2.7,5.8c-1.1,3.4-4.2,5.2-7.4,4.4c-3-0.8-4.4-2.6-3.9-5.4c0.9,0.6,1.7,1.2,2.5,1.7
		c1.6,1,3.2,1.3,4.9,0c1.6-1.2,2-2.8,1.5-4.6C708,681.5,708,681,707.9,680.1z"/>
	<path d="M548.4,746c-1.1-4.5-1.7-8.7-1.2-13.1c0.2-2.1,0.7-4.2,2-6c-0.7,8.7-1.2,17.4,4.1,25.5c-1.4-0.2-1.8-1.1-2.4-1.8
		c-0.6-0.7-1.2-1.6-1.6-2.4"/>
	<path d="M748.6,730.1c0.5,3.4,0.6,8.5,0.6,10.3c-0.2,2.9-0.6,5.3-2,7.8c-0.6,1.2-1.5,2.2-2.3,3.3c-0.3,0.4-0.4,0.5-0.8,0.8
		c-0.7,0.4-1.2,0.2-0.9-0.1c3.7-5,4.2-10.2,4.3-15.8c0.1-2.5-0.3-5.1-0.4-7.6c0-0.6,0-1.2,0.3-1.9C748,728,748.3,728.9,748.6,730.1z
		"/>
	<path d="M486.9,1142.9c10.1,0,18.2,8,18.3,18c0,10-8.1,18.2-18.1,18.2c-9.8,0-18.1-8.2-18.2-18
		C468.8,1151.2,476.9,1143,486.9,1142.9z M503.8,1160.9c0.1-8.8-7-16.9-16.9-16.9c-9.3-0.1-17.1,7.8-16.9,17
		c0.2,11,9.4,17.1,17.2,16.9C496.4,1177.7,503.9,1170.2,503.8,1160.9z"/>
	<path d="M466.8,675.6c3.7,0,6.1,2.5,6.1,6.2c0,3.4-2.9,6.4-6.2,6.2c-4-0.2-6.1-3-6.2-6.3C460.4,679.1,462.8,675.3,466.8,675.6z"/>
	<path d="M810.5,1142.9c10,0,18.1,8.3,18,18.3c-0.1,9.8-8.4,18-18.2,18c-10,0-18.1-8.2-18.1-18.2
		C792.3,1151,800.5,1142.9,810.5,1142.9z M810.4,1177.9c7.5,0.3,16.8-5.8,17-16.8c0.2-9.2-7.6-17-16.9-17.1c-9.3,0-16.9,7.5-17,16.9
		C793.5,1170.3,801.1,1177.8,810.4,1177.9z"/>
	<path d="M824.5,681.7c0-3.7,2.5-6.1,6.1-6.2c3.9-0.1,6.4,3.6,6.3,6.1c-0.2,3.3-2.2,6-6.2,6.3C827.4,688.1,824.6,685.2,824.5,681.7z
		"/>
	<path d="M649.1,1194.1c-0.3,7.5-0.7,13.8-3.3,19.7c-0.6,1.3-1.3,2.6-2.1,3.8c-5,7.6-13.1,8.9-20.5,6.4c-4.4-1.5-7.2-4.9-9.2-9
		c-1.6-3.2-2.6-6.7-3.1-10.3c-1-7.1-1-14.2,0.4-21.3c0.7-3.6,1.8-7,3.7-10.1c4.9-8.1,12.9-9.7,20.8-7.2c4.3,1.3,7,4.6,9.1,8.4
		c1.7,3,2.7,6.3,3.2,9.8C648.7,1188,648.9,1191.6,649.1,1194.1z M639.1,1194.6c-0.1-3.4-0.1-7.2-0.5-11c-0.3-3.3-0.9-6.7-1.9-9.9
		c-1.1-3.7-3.6-5.3-7.1-5.3c-3.5,0-5.9,1.7-7.1,5.4c-0.8,2.3-1.3,4.8-1.6,7.2c-0.9,9.4-0.9,18.8,0,28.3c0.3,3,0.8,6,2.3,8.8
		c1.4,2.6,3.6,3.7,6.5,3.7c2.9,0,5.2-1.1,6.4-3.8c0.7-1.5,1.2-3.1,1.6-4.8C639,1207.2,638.8,1201.1,639.1,1194.6z M637.8,1169.8
		c0.8,2.5,1.6,4.6,2.1,6.7c0.5,2.2,0.7,4.4,0.9,6.6c0.6,8.4,0.6,16.8-0.1,25.1c-0.3,4-1,7.9-3,11.5c-0.1,0.1,0,0.4,0.1,0.7
		c0.4-0.3,0.6-0.4,0.9-0.6c3.5-2.9,5.4-6.9,6.5-11.2c1.9-7.9,2-15.8,0.7-23.8c-0.5-3.5-1.6-6.8-3.4-9.9
		C641.4,1173,640.1,1171.2,637.8,1169.8z M621.7,1220.6c-0.8-2-1.4-3.6-1.9-5.2c-0.4-1.6-0.9-3.3-0.9-4.9
		c-0.3-6.6-0.7-13.3-0.7-19.9c0-4.7,0.6-9.4,1.2-14.1c0.3-2.2,1.3-4.3,2.1-6.8c-2.2,1.4-3.6,3.2-4.7,5.2c-1.8,3.1-2.8,6.4-3.4,9.9
		c-1.1,6.8-1.1,13.7,0,20.5c0.6,3.4,1.6,6.7,3.3,9.7C617.9,1217.2,619.3,1219.1,621.7,1220.6z"/>
	<path d="M730.3,1194.3c-0.4,6.7-0.7,12.2-2.5,17.4c-1.2,3.3-2.9,6.2-5.2,8.8c-5.5,6.1-17.9,6.1-23.5,0.1c-3.5-3.8-5.5-8.2-6.5-13.2
		c-1.7-8.7-1.7-17.3,0.3-25.9c0.8-3.5,2.3-6.8,4.4-9.8c6.2-8.9,21-8.9,27.2,0.3c2.4,3.6,4,7.5,4.6,11.7
		C729.8,1187.6,730,1191.5,730.3,1194.3z M720.1,1195.2c0-2.2,0-4.3,0-6.5c-0.1-2.2-0.1-4.3-0.4-6.5c-0.5-3.1-1.1-6.1-2-9.1
		c-0.6-2-2-3.6-4.2-4.3c-4.2-1.4-8,0.2-9.6,4.4c-1,2.7-1.6,5.7-1.9,8.6c-0.9,8.9-0.9,17.7,0,26.6c0.3,3,1,6,2,8.8
		c1,3,3.4,4.5,6.7,4.5c3.3,0,5.7-1.5,6.9-4.5c0.5-1.2,0.9-2.4,1.1-3.7C720.1,1207.5,720,1201.3,720.1,1195.2z M718.9,1220.3
		c2-1.1,3.6-2.7,4.6-4.7c1.3-2.6,2.5-5.4,3.2-8.2c1.8-8.1,1.7-16.3,0-24.5c-0.9-4.2-2.5-8.1-5.5-11.3c-0.6-0.6-1.3-1.2-2-1.7
		c1.5,3.9,2.5,7.8,2.6,11.8c0.2,7.6,0.5,15.2,0.3,22.7C722,1209.8,721.5,1215.2,718.9,1220.3z M702.8,1170.1
		c-0.1-0.1-0.3-0.2-0.4-0.3c-0.7,0.6-1.4,1.2-2,1.8c-3,3.1-4.6,6.9-5.4,11c-1.7,7.7-1.7,15.5-0.3,23.3c0.7,4.4,2.2,8.5,5.2,11.9
		c0.8,0.9,1.8,1.7,2.8,2.7c0.1-0.5,0.2-0.7,0.1-0.8c-1.8-3.2-2.6-6.7-2.8-10.3c-0.3-6.7-0.4-13.4-0.6-20.1c0-2.2,0.1-4.3,0.3-6.5
		C700,1178.5,700.6,1174.1,702.8,1170.1z"/>
	<path d="M684.8,1207.8c1,0,1.7,0,2.7,0c0,5.4,0,10.6,0,15.8c-1.8,0.6-35.2,0.7-37.6,0.1c-0.5-1.5-0.1-2.5,1.1-3.5
		c6.1-5,12-10.3,17.1-16.4c4.4-5.2,7.6-11,8.6-17.9c0.5-3.7,0.6-7.3-0.4-11c-1.6-6.3-9-8.7-14.1-4.7c-1.6,1.2-2.1,2.9-1.7,4.9
		c0.3,1.2,0.6,2.3,0.7,3.5c0.1,1.5-0.7,2.6-2.1,3.2c-3.4,1.6-7-0.6-7.1-4.4c-0.1-3,1.3-5.4,3.4-7.4c2.2-2.2,4.9-3.5,7.9-4.2
		c5.1-1.1,10.2-0.9,14.9,1.6c5.2,2.7,7.9,7.1,8.3,12.9c0.4,4.6-0.7,9-3.2,12.8c-1.6,2.5-3.4,4.9-5.4,7c-4.6,4.7-9.3,9.2-14,13.8
		c-0.5,0.5-1.1,1.1-1.9,1.9c1.1,0.1,1.8,0.2,2.5,0.2c3.9,0,7.8,0,11.8,0c5.2,0,7.1-1.7,8.2-6.8
		C684.6,1208.7,684.7,1208.3,684.8,1207.8z M673.5,1201.1c2.5-2.1,4.9-4.3,6.6-7.1c1.4-2.3,2.7-4.7,3.6-7.3
		c1.2-3.5,1.1-7.1-0.2-10.6c-1.3-3.3-3.6-5.7-7.1-7.3C681.1,1180.5,680.5,1186.8,673.5,1201.1z M653.3,1221.6c10.8,0,21.3,0,31.7,0
		c0.6-2.3,0.6-5.2,0-6.8c-3.4,2.9-4.6,3.4-9.3,3.4c-5.2,0-10.4,0.2-15.6-0.1C657.3,1218.1,655.2,1219.1,653.3,1221.6z M658.5,1170.7
		c-1.9,1-3.2,2.5-3.8,4.4c-0.3,1-0.4,2.1-0.2,3c0.2,1.4,1.8,2.1,3.4,1.7c1.2-0.3,1.6-1.1,1-2.7
		C658.1,1175,657.9,1172.9,658.5,1170.7z"/>
	<path d="M568.9,1223.8c-0.7-1.7-0.1-2.8,1.2-3.8c6-4.9,11.8-10.1,16.8-16.1c3.5-4.1,6.4-8.6,7.8-13.9c1.3-4.6,1.7-9.3,0.8-14
		c-0.2-0.9-0.5-1.9-0.8-2.8c-1-2.7-3-4.3-5.8-4.7c-2.5-0.4-5,0-7.2,1.3c-2.1,1.3-2.8,3.1-2.1,5.5c0.3,0.9,0.6,1.8,0.6,2.8
		c0.1,2-0.7,3.1-2.6,3.8c-3.3,1.2-6.5-0.9-6.6-4.4c-0.1-2.9,1.1-5.3,3.1-7.3c3.6-3.7,8.2-5.1,13.3-5.1c3.5,0,6.8,0.5,10,2.2
		c5.4,3,8.1,7.6,8.3,13.6c0.2,4.9-1.2,9.4-4,13.3c-2,2.8-4.3,5.4-6.7,7.8c-4,4.1-8.1,7.9-12.2,11.9c-0.5,0.5-0.9,1-1.7,1.8
		c1.1,0.1,1.8,0.2,2.5,0.2c3.8,0,7.7,0,11.5,0c5.4,0,7.2-1.5,8.4-6.9c0.1-0.4,0.2-0.8,0.3-1.3c0.5-0.1,0.9-0.2,1.4-0.2
		c0.4,0,0.8,0.1,1.3,0.2c0,5.3,0,10.5,0,15.8C604.7,1224.1,573,1224.3,568.9,1223.8z M595.2,1169.3c0.1,0.3,0.2,0.5,0.4,0.8
		c1.6,2.3,2.2,4.9,2.5,7.7c0.8,7.8-0.9,14.9-4.9,21.6c-0.3,0.6-0.6,1.2-0.9,1.8c4.4-3.7,8.2-7.7,10.1-13.2c1.1-3.1,1.4-6.2,0.7-9.4
		C602.1,1174.1,599.6,1170.9,595.2,1169.3z M572.2,1221.5c3.4,0.6,30.1,0.4,32.1-0.2c0-2.1,0.3-4.2-0.3-6.8
		c-2.7,3.5-6.2,3.8-9.9,3.8c-5.1,0-10.2,0.2-15.3-0.1C575.8,1218.1,574.1,1219.3,572.2,1221.5z M577.7,1170.5
		c-3.1,1.8-4.8,4.8-4.4,7.4c0.2,1.6,1.5,2.3,3.2,2c1.4-0.3,1.8-1,1.2-2.7C577,1175,576.9,1172.9,577.7,1170.5z"/>
	<path d="M616.4,611.9c0.3,0.7,0.6,1.1,0.8,1.6c2.8,7.6,8.3,12.6,15.6,15.9c5.8,2.6,11.9,3.7,18.1,3.4c4-0.2,7.9-1,11.6-2.5
		c3.9-1.5,7.5-3.5,10.6-6.3c3.3-2.9,5.6-6.5,7.1-10.6c0.2-0.4,0.4-0.8,0.7-1.7c0.3,0.6,0.5,0.8,0.4,1c-0.8,7.2-3.4,13.5-8.4,18.8
		c-5.4,5.8-11.9,9.5-19.6,11.2c-4.4,0.9-8.7,0.6-12.9-0.9c-9.3-3.1-16.5-8.9-21.2-17.5c-1.9-3.6-2.9-7.5-3.3-11.6
		C616,612.6,616.2,612.4,616.4,611.9z"/>
	<path d="M652.8,622.3c-2.7,0-5.5,0-8.2,0c0-0.1-0.1-0.2-0.1-0.4c0.3-0.2,0.7-0.4,1-0.6c0.8-0.5,1.3-1.1,1.3-2.1
		c0-6.1,0-12.2,0-18.2c0-1.4-0.5-1.8-1.9-1.9c-2.1-0.1-3.9,0.6-5,2.8c-0.9-1.4-0.4-2.8-0.3-4.2c6.2,0,12.3,0,18.5,0
		c0,1.4,0,2.7,0,4.6c-1.3-2.4-2.9-3.3-5-3.2c-1.7,0.1-2.2,0.4-2.2,2.1c0,5.9,0,11.8,0,17.8c0,1.7,1.1,2.3,2.3,2.9
		C652.9,622,652.9,622.2,652.8,622.3z"/>
	<path d="M622.3,600.6c0.7,0,1.4-0.1,2.1-0.1c0.7,0,1.4,0.1,2.4,0.1c-1.3,2.2-0.9,4.4-0.9,6.6c-0.1,3-0.2,6.1-0.2,9.1
		c0,2.3,0.6,3,2.9,3.1c0.6,0,1.3,0.1,1.9-0.1c1.3-0.3,1.9-1,1.9-2.3c0-4.5,0.1-9,0-13.4c0-0.9-0.6-1.8-1-2.9c1.5,0,3.1,0,4.9,0
		c-0.5,0.8-1,1.3-1.3,2c-0.2,0.7-0.1,1.4-0.1,2.1c0,3.2-0.1,6.4,0,9.6c0.2,3.4-2.2,6.3-5.9,6.5c-3.3,0.1-6-2.7-6.1-6.3
		c-0.1-3.5,0-7,0-10.5C622.8,603,622.5,602,622.3,600.6z"/>
	<path d="M672.4,616.8c0,1.3,0,2.6,0,3.8c-4.2,1.3-8-0.6-9.9-3.5c-0.3-0.5-0.8-1.1-0.8-1.7c-0.1-2.7-0.3-5.5,0.1-8.1
		c0.7-3.9,5.2-7.8,10.5-6.4c0.5,1.7,0.3,3.5-0.5,5.4c-0.3-0.8-0.5-1.7-0.8-2.5c-0.4-1.1-1-1.4-2.2-1.2c-2.5,0.5-3.6,1.8-3.6,4.2
		c0,3.2,0,6.4,0,9.6c0,2.3,2.4,4,4.7,3.3c0.5-0.2,0.9-0.7,1.2-1.1c0.4-0.6,0.7-1.2,1-1.8C672.2,616.7,672.3,616.7,672.4,616.8z"/>
	<path d="M486.9,1153.9c3.5-0.3,6.9,3.3,6.9,7c0,3.1-3.2,7-7.1,7c-3.7-0.1-7-3.4-6.9-7.1C479.9,1156.8,483.5,1153.5,486.9,1153.9z"
		/>
	<path d="M803.7,1160.7c-0.2-3.3,3.1-6.9,7.1-6.8c3.2,0.1,6.9,3.2,6.9,7.1c0,3.7-3.5,6.9-7.2,6.9
		C806.9,1167.8,803.2,1164.2,803.7,1160.7z"/>
</g>
</svg>
